<?xml version="1.0" encoding="utf-8"?>
<!-- Generator: Adobe Illustrator 12.0.0, SVG Export Plug-In . SVG Version: 6.00 Build 51448)  -->
<!DOCTYPE svg PUBLIC "-//W3C//DTD SVG 1.1//EN" "http://www.w3.org/Graphics/SVG/1.1/DTD/svg11.dtd" [
	<!ENTITY ns_svg "http://www.w3.org/2000/svg">
	<!ENTITY ns_xlink "http://www.w3.org/1999/xlink">
]>
<svg  version="1.1" id="Layer_1" xmlns="&ns_svg;" xmlns:xlink="&ns_xlink;" width="413.798" height="73.948"
	 viewBox="0 0 413.798 73.948" overflow="visible" enable-background="new 0 0 413.798 73.948" xml:space="preserve">
<g id="Reference">
	<path fill="#6550A1" d="M196.989,50c-13.255,0-24-10.745-24-24s10.745-24,24-24s24,10.745,24,24S210.244,50,196.989,50z
		 M196.989,3.919c-12.194,0-22.08,9.885-22.08,22.081s9.886,22.081,22.08,22.081c12.195,0,22.081-9.885,22.081-22.081
		S209.184,3.919,196.989,3.919z"/>
	<path fill="#6550A1" d="M211.293,32.72h-1.824v-3.84c0-0.531-0.43-0.961-0.961-0.961h-2.879v-3.839c0-0.531-0.43-0.961-0.961-0.961
		h-6.72v-2.88h6.72c0.531,0,0.961-0.43,0.961-0.96v-8.639c0-0.531-0.43-0.961-0.961-0.961h-15.359c-0.53,0-0.959,0.43-0.959,0.961
		v8.639c0,0.53,0.43,0.96,0.959,0.96h6.72v2.88h-6.72c-0.53,0-0.959,0.43-0.959,0.961v3.839h-2.88c-0.53,0-0.961,0.43-0.961,0.961
		v3.84h-1.823c-0.531,0-0.961,0.43-0.961,0.959v4.799c0,0.531,0.43,0.961,0.961,0.961h4.703c0.53,0,0.961-0.43,0.961-0.961V33.68
		c0-0.53-0.431-0.959-0.961-0.959h-0.96v-2.88h4.8v2.88h-0.96c-0.53,0-0.959,0.43-0.959,0.959v4.799c0,0.531,0.43,0.961,0.959,0.961
		h4.801c0.53,0,0.96-0.43,0.96-0.961V33.68c0-0.53-0.43-0.959-0.96-0.959h-1.92v-3.84c0-0.531-0.43-0.961-0.959-0.961h-1.921v-2.88
		h13.44v2.88h-1.919c-0.531,0-0.961,0.43-0.961,0.961v3.84h-1.919c-0.53,0-0.961,0.43-0.961,0.959v4.799
		c0,0.531,0.431,0.961,0.961,0.961h4.8c0.53,0,0.959-0.43,0.959-0.961V33.68c0-0.53-0.43-0.959-0.959-0.959h-0.96v-2.88h4.8v2.88
		h-1.027c-0.53,0-0.96,0.43-0.96,0.959v4.799c0,0.531,0.43,0.961,0.96,0.961h4.799c0.531,0,0.961-0.43,0.961-0.961V33.68
		c0-0.53-0.43-0.959-0.959-0.961C211.313,32.719,211.303,32.72,211.293,32.72z M186.429,37.521h-2.784v-2.88h2.784V37.521z
		 M194.108,34.641v2.88h-2.88v-2.88H194.108z M190.269,18.32V11.6h13.44v6.72H190.269z M202.749,37.521h-2.88v-2.88h2.88V37.521z
		 M210.333,37.521h-2.88v-2.88h2.88V37.521z"/>
</g>
<text transform="matrix(1 0 0 1 183.981 69.9478)" font-family="'Myriad-Roman'" font-size="16">ALB</text>
<g id="Reference_1_">
	<g id="Icon_Test_1_">
		<path fill="#010101" d="M40.978,4.156H3.603c-2.089,0.11-3.697,1.888-3.599,3.978v24.049c-0.099,2.089,1.509,3.867,3.599,3.978
			h20.646v-1.939H3.603c-0.999-0.146-1.721-1.03-1.659-2.038V15.794h17.455v14.547c0,0.535,0.436,0.969,0.971,0.969h7.758v-1.939
			h-6.352v-0.29c-0.006-3.327,2.176-6.257,5.363-7.208c1.513,0.694,3.255,0.694,4.771,0c1.79,0.541,3.314,1.722,4.287,3.318
			l1.647-0.971l0,0c-0.998-1.63-2.464-2.922-4.208-3.705c0.795-0.943,1.231-2.139,1.231-3.374c0-2.946-2.387-5.333-5.333-5.333
			s-5.335,2.387-5.335,5.333c0.026,1.215,0.472,2.383,1.261,3.307c-1.677,0.744-3.1,1.965-4.092,3.51V10.945h16.487v13.286l0,0v0.29
			h1.939v-8.727h2.91v9.697h1.939V8.133c0.097-2.098-1.523-3.877-3.621-3.976C41.008,4.158,40.992,4.158,40.978,4.156z
			 M29.535,13.729c1.862-0.012,3.384,1.492,3.394,3.354l0,0c-0.008,1.219-0.681,2.334-1.754,2.91c-1.026,0.552-2.263,0.552-3.287,0
			c-1.069-0.58-1.738-1.695-1.746-2.91C26.151,15.22,27.67,13.717,29.535,13.729L29.535,13.729z M39.765,13.855V9.976
			c0-0.537-0.432-0.971-0.969-0.971H20.37c-0.535,0-0.971,0.434-0.971,0.971v3.879H1.944V8.133C1.882,7.125,2.604,6.241,3.603,6.095
			h37.375c1.006,0.136,1.738,1.024,1.677,2.038v5.722H39.765z"/>
		<rect x="3.903" y="20.595" fill="#010101" width="10.648" height="1.939"/>
		<rect x="3.903" y="25.442" fill="#010101" width="6.77" height="1.94"/>
		<rect x="12.631" y="25.442" fill="#010101" width="2.891" height="1.94"/>
		<path fill="#010101" d="M37.855,24.182L37.855,24.182L37.855,24.182z"/>
		<path fill="#010101" d="M38.204,47.844c-5.414,0.028-9.826-4.342-9.852-9.756c-0.025-5.414,4.343-9.826,9.757-9.852
			c0.428-0.002,0.854,0.024,1.278,0.077l0,0c5.378,0.665,9.2,5.564,8.538,10.944c-0.237,1.906-1.026,3.701-2.273,5.164
			c-0.908,1.045-2.021,1.894-3.27,2.494C41.075,47.527,39.648,47.844,38.204,47.844z M38.204,30.176
			c-1.245,0-2.472,0.298-3.579,0.872c-3.855,2.003-5.359,6.75-3.358,10.605c1.942,3.739,6.483,5.286,10.303,3.506
			c1.006-0.478,1.902-1.162,2.628-2.009c2.821-3.301,2.433-8.265-0.87-11.088c-1.178-1.006-2.626-1.642-4.163-1.827l0,0
			c-0.326-0.041-0.653-0.059-0.981-0.059H38.204z"/>
		<path fill="#010101" d="M36.663,42.172L36.663,42.172c-0.258,0.002-0.507-0.101-0.69-0.282l-3.131-3.131l1.348-1.368l2.444,2.443
			l5.527-5.537l1.377,1.377l-6.225,6.215C37.139,42.063,36.908,42.164,36.663,42.172z"/>
		<path fill="#010101" d="M37.855,24.182L37.855,24.182L37.855,24.182z"/>
	</g>
</g>
<text transform="matrix(1 0 0 1 12.5044 69.9473)" font-family="'Myriad-Roman'" font-size="16">IDP</text>
<g id="Working">
	<path fill="#CA2863" d="M392.626,0h-41.16c-1.889,0-3.42,1.531-3.42,3.42l0,0v41.16c0,1.889,1.531,3.42,3.42,3.42h41.16
		c1.889,0,3.42-1.531,3.42-3.42V3.42C396.046,1.531,394.515,0,392.626,0z M394.046,3.42V23h-5.51c1.023-2.278,0.369-4.961-1.59-6.51
		c-1.33-1.029-3.057-1.397-4.69-1c-1.952,0.465-3.49,1.968-4,3.91c-0.315,1.212-0.21,2.496,0.3,3.64h-5.51V15
		c-0.002-0.552-0.451-0.998-1.004-0.996c-0.271,0.001-0.529,0.111-0.717,0.306c-0.87,0.941-2.189,1.326-3.43,1
		c-1.218-0.313-2.162-1.276-2.449-2.5c-0.463-1.86,0.671-3.742,2.531-4.204c1.21-0.301,2.488,0.071,3.348,0.974
		c0.383,0.399,1.016,0.413,1.414,0.031c0.215-0.205,0.327-0.495,0.307-0.791V2h19.58C393.408,2.005,394.041,2.638,394.046,3.42z
		 M351.466,2h19.58v4.9c-2.279-1.009-4.953-0.356-6.51,1.59c-1.028,1.334-1.396,3.063-1,4.7c0.461,1.951,1.961,3.489,3.9,4
		c1.202,0.307,2.474,0.201,3.609-0.3V23h-7.42c-0.41,0-0.778,0.249-0.93,0.63c-0.149,0.378-0.055,0.81,0.24,1.09
		c1.387,1.322,1.439,3.519,0.118,4.906c-0.86,0.903-2.139,1.274-3.349,0.974c-1.225-0.291-2.189-1.232-2.51-2.449
		c-0.317-1.24,0.066-2.555,1-3.431c0.294-0.28,0.389-0.711,0.24-1.09c-0.152-0.381-0.521-0.63-0.931-0.63h-7.46V3.42
		C350.052,2.638,350.685,2.005,351.466,2z M350.046,44.58V25h5.51c-0.51,1.147-0.615,2.435-0.3,3.65c0.513,1.938,2.05,3.436,4,3.899
		c0.421,0.091,0.85,0.138,1.28,0.14c3.01,0.018,5.464-2.408,5.481-5.418c0.005-0.783-0.159-1.558-0.481-2.271h5.51v6.82
		c0.002,0.552,0.451,0.998,1.004,0.996c0.271-0.002,0.529-0.111,0.717-0.307c1.321-1.387,3.518-1.44,4.905-0.119
		c0.903,0.861,1.274,2.139,0.974,3.35c-0.287,1.225-1.231,2.188-2.449,2.5c-1.24,0.326-2.56-0.059-3.43-1
		c-0.383-0.399-1.016-0.413-1.414-0.031c-0.215,0.205-0.327,0.495-0.307,0.791v8h-19.58
		C350.685,45.994,350.052,45.361,350.046,44.58z M392.626,46h-19.58v-6.109c1.148,0.506,2.436,0.608,3.65,0.289
		c1.938-0.511,3.438-2.049,3.899-4c0.396-1.637,0.028-3.365-1-4.699c-1.565-1.963-4.263-2.613-6.55-1.58V25h7.42
		c0.41,0,0.778-0.249,0.93-0.63c0.149-0.378,0.055-0.81-0.24-1.09c-0.934-0.876-1.316-2.19-1-3.43
		c0.32-1.217,1.285-2.159,2.511-2.45c1.86-0.462,3.742,0.671,4.204,2.531c0.301,1.21-0.071,2.489-0.975,3.349
		c-0.294,0.28-0.389,0.711-0.24,1.09c0.152,0.381,0.521,0.63,0.931,0.63h7.46v19.58C394.041,45.361,393.408,45.994,392.626,46z"/>
</g>
<text transform="matrix(1 0 0 1 330.3911 67.9478)" font-family="'Myriad-Roman'" font-size="16">Applications</text>
<line fill="none" stroke="#000000" stroke-width="3" x1="59.204" y1="26" x2="159.204" y2="26"/>
<line fill="none" stroke="#000000" stroke-width="3" x1="236.783" y1="26" x2="336.783" y2="26"/>
</svg>
