<?xml version="1.0" encoding="utf-8"?>
<!-- Generator: Adobe Illustrator 12.0.0, SVG Export Plug-In . SVG Version: 6.00 Build 51448)  -->
<!DOCTYPE svg PUBLIC "-//W3C//DTD SVG 1.1//EN" "http://www.w3.org/Graphics/SVG/1.1/DTD/svg11.dtd" [
	<!ENTITY ns_svg "http://www.w3.org/2000/svg">
	<!ENTITY ns_xlink "http://www.w3.org/1999/xlink">
]>
<svg  version="1.1" id="Layer_1" xmlns="&ns_svg;" xmlns:xlink="&ns_xlink;" width="489.958" height="319.75"
	 viewBox="0 0 489.958 319.75" overflow="visible" enable-background="new 0 0 489.958 319.75" xml:space="preserve">
<g id="Reference">
	<path fill="#6551A2" d="M149.138,208.957c-12.426,0-22.5-10.074-22.5-22.5c0-12.427,10.074-22.5,22.5-22.5
		c12.426,0,22.5,10.073,22.5,22.5C171.638,198.883,161.564,208.957,149.138,208.957z M149.138,165.755
		c-11.433,0-20.7,9.269-20.7,20.702s9.268,20.701,20.7,20.701s20.701-9.268,20.701-20.701
		C169.839,175.021,160.571,165.755,149.138,165.755z"/>
	<path fill="#6551A2" d="M162.549,192.756h-1.71v-3.6c0-0.497-0.402-0.901-0.901-0.901h-2.699v-3.599
		c0-0.498-0.402-0.902-0.901-0.902h-6.3v-2.699h6.3c0.498,0,0.901-0.402,0.901-0.896v-8.102c0-0.496-0.402-0.9-0.901-0.9h-14.4
		c-0.497,0-0.9,0.4-0.9,0.9v8.102c0,0.494,0.402,0.896,0.9,0.896h6.3v2.699h-6.3c-0.497,0-0.9,0.403-0.9,0.902v3.599h-2.7
		c-0.496,0-0.901,0.401-0.901,0.901v3.6h-1.709c-0.498,0-0.901,0.402-0.901,0.9v4.5c0,0.498,0.403,0.9,0.901,0.9h4.409
		c0.496,0,0.901-0.402,0.901-0.9v-4.5c0-0.496-0.404-0.9-0.901-0.9h-0.9v-2.699h4.5v2.699h-0.899c-0.497,0-0.9,0.402-0.9,0.9v4.5
		c0,0.498,0.403,0.9,0.9,0.9h4.501c0.496,0,0.899-0.402,0.899-0.9v-4.5c0-0.496-0.402-0.9-0.899-0.9h-1.8v-3.6
		c0-0.497-0.403-0.901-0.9-0.901h-1.8v-2.7h12.6v2.7h-1.799c-0.497,0-0.901,0.401-0.901,0.901v3.6h-1.799
		c-0.496,0-0.901,0.402-0.901,0.9v4.5c0,0.498,0.404,0.9,0.901,0.9h4.5c0.496,0,0.899-0.402,0.899-0.9v-4.5
		c0-0.496-0.402-0.9-0.899-0.9h-0.9v-2.699h4.5v2.699h-0.963c-0.497,0-0.9,0.402-0.9,0.9v4.5c0,0.498,0.403,0.9,0.9,0.9h4.5
		c0.497,0,0.901-0.402,0.901-0.9v-4.5c0-0.496-0.402-0.9-0.9-0.9C162.567,192.756,162.556,192.756,162.549,192.756z
		 M139.238,197.257h-2.611v-2.7h2.611V197.257z M146.438,194.557v2.7h-2.7v-2.7H146.438z M142.838,179.256v-6.3h12.6v6.3H142.838z
		 M154.537,197.257h-2.699v-2.7h2.699V197.257z M161.648,197.257h-2.7v-2.7h2.7V197.257z"/>
</g>
<g>
	<rect id="Orange_Gradient" x="196.607" y="98" fill="#D56928" width="45" height="45"/>
	<g id="Icon_Test">
		<path fill="#FFFFFF" d="M218.98,136.665c-0.112,0.002-0.223-0.026-0.318-0.085l-13.657-7.872
			c-0.197-0.115-0.318-0.325-0.317-0.551v-15.949c0-0.228,0.122-0.438,0.317-0.552l12.558-7.233c0.271-0.19,0.646-0.125,0.835,0.146
			c0.08,0.116,0.118,0.254,0.106,0.393v6.904c0,0.22-0.114,0.42-0.3,0.535l-6.281,3.601v8.364l7.073,4.085l6.187-3.599
			c0.185-0.107,0.415-0.107,0.6,0l5.952,3.417c0.197,0.115,0.319,0.325,0.319,0.554c0.006,0.227-0.118,0.437-0.319,0.544
			l-12.449,7.2C219.194,136.627,219.089,136.66,218.98,136.665z M205.906,127.724l13.397,7.735l11.502-6.647l-4.8-2.766
			l-6.378,3.684c-0.204,0.115-0.452,0.115-0.654,0l-7.969-4.597c-0.197-0.112-0.318-0.32-0.318-0.545v-8.913
			c-0.006-0.228,0.116-0.44,0.318-0.547l6.282-3.599v-5.508l-11.4,6.598L205.906,127.724z"/>
		<path fill="#FFFFFF" d="M232.87,127.4c-0.111,0-0.221-0.029-0.319-0.083l-5.946-3.438c-0.2-0.107-0.324-0.319-0.318-0.547v-7.266
			l-6.281-3.625c-0.196-0.11-0.317-0.32-0.317-0.544v-6.907c-0.005-0.225,0.115-0.432,0.313-0.54c0.187-0.107,0.415-0.107,0.6,0
			l12.605,7.241c0.197,0.112,0.317,0.32,0.317,0.547v14.502c0,0.228-0.121,0.438-0.317,0.551
			C233.105,127.357,232.989,127.395,232.87,127.4z M227.505,122.929l4.8,2.761v-13.051l-11.399-6.599v5.479l6.3,3.647
			c0.201,0.107,0.324,0.32,0.317,0.548L227.505,122.929z"/>
	</g>
</g>
<g>
	<rect id="Orange_Light_BG" x="275.149" y="173.801" fill="#D56928" width="44.998" height="45"/>
	<g id="Product_Icon">
		<path fill="#FFFFFF" d="M311.442,198.1h-2.998V196.9h2.998v-14.398h-14.398v2.999h-1.199v-2.999c0-0.664,0.537-1.201,1.199-1.201
			h14.398c0.664,0,1.201,0.537,1.201,1.201V196.9C312.643,197.563,312.106,198.1,311.442,198.1z"/>
		<path fill="#FFFFFF" d="M298.243,211.301h-14.402c-0.661,0-1.2-0.537-1.2-1.201v-14.398c0-0.662,0.539-1.199,1.2-1.199h3.001
			v1.199h-3.001V210.1h14.402v-2.998h1.197v2.998C299.442,210.764,298.903,211.301,298.243,211.301z"/>
		<path fill="#FFFFFF" d="M307.249,190.898v-1.199h-1.801c-0.051-0.641-0.562-1.15-1.199-1.201V186.7h-1.201v1.798h-1.801V186.7
			h-1.197v1.798h-1.801V186.7h-1.2v1.798h-1.799V186.7h-1.199v1.798h-1.799V186.7h-1.201v1.798c-0.64,0.051-1.149,0.563-1.198,1.201
			h-1.802v1.199h1.802v1.8h-1.802v1.2h1.802v1.799h-1.802v1.201h1.802v1.8h-1.802v1.2h1.802v1.799h-1.802v1.199h1.802
			c0.049,0.643,0.559,1.147,1.198,1.201v1.797h1.201v-1.797h1.799v1.797h1.199v-1.797h1.799v1.797h1.2v-1.797h1.801v1.797h1.197
			v-1.797h1.801v1.797h1.201v-1.797c0.64-0.054,1.148-0.561,1.199-1.201h1.801v-1.199h-1.801v-1.799h1.801v-1.2h-1.801v-1.8h1.801
			v-1.201h-1.801v-1.799h1.801v-1.2h-1.801v-1.8H307.249z M304.249,202.791c0,0.061-0.049,0.107-0.107,0.107l0,0h-12.986
			c-0.059,0-0.105-0.047-0.105-0.107l0,0v-12.984c0-0.059,0.049-0.105,0.105-0.105l0,0h12.986c0.059,0,0.107,0.049,0.107,0.105l0,0
			V202.791L304.249,202.791z"/>
	</g>
</g>
<g>
	<rect x="76.959" y="37.999" fill="#2C8942" width="22.5" height="22.5"/>
	<path fill="#FFFFFF" d="M89.72,49.372h-0.476v-0.443c-0.052-0.762-0.711-1.336-1.474-1.285c-0.688,0.048-1.237,0.596-1.283,1.285
		v0.43h-0.476c-0.178,0-0.322,0.145-0.322,0.322v2.463c0,0.178,0.144,0.322,0.322,0.322h3.709c0.178,0,0.322-0.144,0.322-0.322
		v-2.45C90.042,49.515,89.897,49.372,89.72,49.372z M87.148,48.94c0.038-0.407,0.399-0.705,0.805-0.667
		c0.354,0.033,0.634,0.313,0.668,0.667v0.432H87.13L87.148,48.94z M89.418,51.788h-3.087v-1.774h3.066L89.418,51.788z"/>
	<path fill="#FFFFFF" d="M93.944,48.341c-0.035-0.962-0.651-1.806-1.556-2.134c-0.616-0.179-1.282-0.039-1.773,0.373
		c-0.25-0.563-0.6-1.074-1.035-1.51c-1.271-1.319-3.23-1.704-4.906-0.964c-1.565,0.745-2.576,2.31-2.61,4.043
		c0,0.098,0,0.186,0,0.277c-1.362,0.385-2.279,1.659-2.211,3.073c0,0.083,0,0.174,0,0.257c0.138,1.706,1.574,3.014,3.285,2.995
		h10.447c0,0,2.982-0.257,2.982-3.254C96.592,49.944,95.476,48.601,93.944,48.341z M93.564,54.127H83.143
		c-1.375,0.022-2.53-1.027-2.642-2.397c0-0.072,0-0.141,0-0.212c-0.068-1.218,0.771-2.297,1.967-2.532
		c0.156-0.043,0.256-0.193,0.237-0.353c-0.01-0.158-0.01-0.314,0-0.47c0.04-1.473,0.895-2.802,2.217-3.452
		c0.487-0.215,1.011-0.329,1.542-0.335c1.016,0.024,1.981,0.445,2.686,1.176c0.478,0.49,0.838,1.081,1.055,1.73
		c0.06,0.167,0.244,0.252,0.412,0.192c0.059-0.022,0.11-0.06,0.147-0.109c0.324-0.467,0.906-0.678,1.453-0.528
		c0.704,0.284,1.158,0.977,1.132,1.736c-0.026,0.17,0.087,0.332,0.257,0.36c1.438,0.142,2.488,1.425,2.344,2.862
		c-0.124,1.24-1.104,2.221-2.344,2.344L93.564,54.127z"/>
</g>
<g>
	<rect x="89.459" y="75.5" fill="#207EBA" width="22.5" height="22.5"/>
	<path fill="#FFFFFF" d="M100.715,86.962c-0.845-0.005-1.535,0.675-1.539,1.52c-0.005,0.729,0.506,1.359,1.219,1.507v2.116h0.643
		v-2.116c0.828-0.172,1.357-0.982,1.186-1.809C102.074,87.468,101.444,86.958,100.715,86.962z M100.715,89.38
		c-0.49,0-0.886-0.397-0.886-0.887c0-0.49,0.398-0.888,0.886-0.888c0.49,0,0.888,0.397,0.888,0.888l0,0
		C101.603,88.981,101.205,89.38,100.715,89.38z"/>
	<path fill="#FFFFFF" d="M104.064,84.692v-1.717c0-1.853-1.502-3.355-3.356-3.355s-3.356,1.501-3.356,3.355l0,0v1.717h-2.019v9.187
		h10.749v-9.187H104.064z M97.995,82.975c0-1.498,1.215-2.712,2.712-2.712c1.497,0,2.712,1.215,2.712,2.712v1.717h-5.425
		L97.995,82.975L97.995,82.975z M105.44,93.263h-9.462v-7.926h9.462V93.263z"/>
</g>
<g id="Working_2_">
	<path fill="#020202" d="M11.871,195.656H0.9c-0.498,0-0.9-0.402-0.9-0.9v-1.351c-0.006-4.944,3.376-9.248,8.181-10.413
		c0.22-0.051,0.45-0.02,0.647,0.091c1.386,0.742,3.051,0.742,4.438,0c0.198-0.11,0.429-0.142,0.649-0.091
		c1.222,0.299,2.384,0.811,3.429,1.512l-1.009,1.494c-0.776-0.51-1.63-0.896-2.527-1.143c-1.751,0.806-3.766,0.806-5.518,0
		c-3.835,1.078-6.485,4.574-6.489,8.56v0.442h10.071L11.871,195.656L11.871,195.656z"/>
	<path fill="#020202" d="M11.034,185.422c-3.262,0-5.904-2.642-5.904-5.904c0-3.261,2.643-5.901,5.904-5.901
		c3.255-0.032,5.918,2.579,5.951,5.839c0.02,2.186-1.169,4.197-3.089,5.236l0,0C13.018,185.173,12.034,185.422,11.034,185.422z
		 M11.034,175.414c-2.279-0.01-4.135,1.826-4.149,4.104c-0.001,1.504,0.821,2.888,2.143,3.603c1.251,0.68,2.762,0.68,4.014,0l0,0
		c1.987-1.078,2.726-3.563,1.648-5.552c-0.725-1.338-2.134-2.166-3.656-2.146V175.414z"/>
	<path fill="#020202" d="M41.401,195.656H30.429v-1.799H40.5v-0.451c-0.006-3.985-2.661-7.477-6.497-8.551
		c-1.749,0.813-3.769,0.813-5.518,0c-0.917,0.252-1.784,0.653-2.565,1.199l-1.017-1.479c1.042-0.733,2.211-1.269,3.448-1.575
		c0.218-0.051,0.447-0.021,0.647,0.081c1.39,0.752,3.066,0.752,4.455,0c0.196-0.104,0.423-0.134,0.638-0.081
		c4.809,1.16,8.195,5.467,8.19,10.413v1.341C42.283,195.246,41.89,195.646,41.401,195.656z"/>
	<path fill="#020202" d="M31.23,185.422c-3.286-0.005-5.946-2.672-5.94-5.958c0.003-3.285,2.671-5.944,5.958-5.94
		c3.287,0.006,5.945,2.672,5.94,5.959c-0.004,2.172-1.19,4.17-3.096,5.213l0,0C33.214,185.173,32.231,185.422,31.23,185.422z
		 M31.23,175.414c-2.279-0.01-4.135,1.826-4.15,4.104c-0.002,1.504,0.82,2.888,2.143,3.603c1.251,0.68,2.762,0.68,4.014,0l0,0
		c1.994-1.067,2.744-3.549,1.676-5.544C34.188,176.223,32.765,175.389,31.23,175.414z"/>
	<path fill="#020202" d="M35.495,215.896H6.75c-0.498,0-0.9-0.403-0.9-0.898v-1.909c-0.019-6.831,4.647-12.784,11.286-14.399
		c0.217-0.056,0.45-0.024,0.647,0.08c2.082,1.112,4.579,1.112,6.66,0c0.197-0.107,0.429-0.136,0.649-0.08
		c6.646,1.604,11.323,7.563,11.303,14.399v1.909C36.396,215.492,35.992,215.896,35.495,215.896L35.495,215.896z M7.651,214.096
		h26.944v-1.008c-0.001-5.87-3.941-11.012-9.611-12.537c-2.445,1.186-5.295,1.186-7.74,0c-5.662,1.533-9.595,6.674-9.593,12.537
		V214.096z"/>
	<path fill="#020202" d="M21.15,201.408c-1.361,0.002-2.702-0.34-3.898-0.991c-3.926-2.146-5.368-7.063-3.224-10.991
		c2.144-3.926,7.065-5.371,10.991-3.225c3.926,2.143,5.37,7.064,3.225,10.99c-0.744,1.363-1.864,2.479-3.225,3.226l0,0
		C23.833,201.064,22.503,201.406,21.15,201.408z M21.15,187.232c-3.414-0.039-6.214,2.694-6.252,6.109
		c-0.026,2.288,1.211,4.402,3.22,5.498c1.885,1.016,4.153,1.016,6.039,0l0,0c3.002-1.613,4.126-5.359,2.51-8.361
		C25.576,188.454,23.45,187.201,21.15,187.232z"/>
</g>
<g id="Working_3_">
	<rect x="64.459" y="0.5" fill="#253140" width="22.5" height="22.5"/>
	<path fill="#FFFFFF" d="M80.878,17.06H70.836c-1.652,0.022-3.038-1.245-3.162-2.893c0-0.083,0-0.167,0-0.25
		c-0.067-1.354,0.802-2.577,2.102-2.958c0-0.089,0-0.18,0-0.264c0.048-1.652,1.015-3.143,2.508-3.856
		c1.622-0.723,3.523-0.347,4.751,0.939c0.409,0.416,0.737,0.904,0.97,1.439c0.474-0.393,1.111-0.529,1.704-0.361
		c0.877,0.309,1.477,1.123,1.51,2.052c1.474,0.254,2.545,1.54,2.526,3.034C83.745,16.79,80.909,17.054,80.878,17.06z M70.16,11.486
		c-1.13,0.245-1.913,1.276-1.845,2.43c0,0.071,0,0.142,0,0.211c0.112,1.329,1.24,2.337,2.571,2.303h10.022
		c1.382-0.123,2.406-1.34,2.284-2.725c-0.106-1.214-1.069-2.176-2.284-2.283c-0.165-0.026-0.278-0.181-0.25-0.346l0,0
		c0.025-0.73-0.41-1.396-1.086-1.665c-0.524-0.145-1.083,0.056-1.395,0.5c-0.069,0.093-0.183,0.139-0.295,0.123
		c-0.113-0.02-0.205-0.099-0.244-0.205c-0.225-0.61-0.583-1.161-1.049-1.614c-1.046-1.106-2.679-1.433-4.068-0.81
		c-1.269,0.632-2.087,1.908-2.135,3.324c-0.009,0.149-0.009,0.299,0,0.45c0.021,0.159-0.086,0.308-0.244,0.339L70.16,11.486z"/>
</g>
<g>
	<g id="Reference_2_">
		<rect id="Green_Gradient_1_" x="390.987" y="172.043" fill="#2C8942" width="30" height="30"/>
		<g id="Icon_Test_2_">
			<path fill="#FFFFFF" d="M415.56,188.068c-0.119-0.629-0.83-1.072-1.318-1.387c-0.156-0.104-0.582-0.264-0.617-0.401
				c-0.004-0.099,0.014-0.2,0.037-0.294l0.4-2.879c0.117-0.844,0.227-1.688,0.344-2.531c0.105-0.774-0.268-1.295-0.9-1.731
				c-1.283-0.893-2.969-1.253-4.482-1.499c-1.898-0.313-3.832-0.375-5.752-0.188c-1.727,0.125-3.416,0.529-5.016,1.199
				c-0.854,0.397-1.975,1.021-1.836,2.115c0.398,3.247,0.873,6.485,1.311,9.73c0.199,1.482,0.396,2.969,0.6,4.453
				c0.066,0.588,0.441,1.095,0.984,1.328c1.24,0.674,2.773,0.865,4.16,0.992c1.84,0.168,3.691,0.084,5.512-0.242
				c1.152-0.211,3.297-0.561,3.479-2.002c0.23-1.781,0.48-3.565,0.721-5.346l0.088-0.546
				C413.923,188.998,415.784,189.33,415.56,188.068z M405.405,177.843c2.4,0,5.148,0.273,7.303,1.456
				c0.33,0.184,1.104,0.598,0.871,1.085s-0.955,0.731-1.395,0.907c-0.627,0.232-1.273,0.412-1.934,0.542
				c-2.854,0.563-5.789,0.625-8.664,0.179c-1.299-0.133-2.563-0.504-3.729-1.092c-0.287-0.164-0.764-0.459-0.633-0.852
				c0.105-0.211,0.27-0.389,0.475-0.504c0.879-0.566,1.855-0.959,2.879-1.164C402.161,178.021,403.782,177.833,405.405,177.843z
				 M411.679,194.701c-0.063,0.469-0.832,0.701-1.201,0.833c-0.764,0.257-1.555,0.434-2.352,0.528c-1.775,0.234-3.574,0.234-5.35,0
				c-1.111-0.086-2.197-0.383-3.201-0.867c-0.277-0.121-0.463-0.389-0.479-0.692c-0.4-3.172-0.857-6.343-1.283-9.517l-0.465-3.439
				c0.91,0.502,1.895,0.85,2.92,1.023c1.096,0.224,2.209,0.369,3.322,0.438c2.189,0.157,4.395,0.035,6.559-0.363
				c1.146-0.168,2.264-0.537,3.283-1.098l-0.85,6.279c-2.025-0.667-4.01-1.469-5.93-2.399c-0.084-0.032-0.166-0.071-0.244-0.116
				c-0.105-0.078-0.078-0.039-0.131-0.164c-0.1-0.229-0.127-0.398-0.336-0.588c-0.389-0.313-0.955-0.248-1.266,0.141
				c-0.313,0.388-0.248,0.953,0.141,1.267c0.176,0.144,0.4,0.21,0.629,0.192c0.137-0.022,0.271-0.063,0.398-0.119
				c0.154-0.049,0.154-0.039,0.318,0.035c1.945,0.949,3.951,1.771,6.002,2.465c0.309,0.1,0.303,0,0.303,0.255
				c-0.014,0.195-0.037,0.392-0.076,0.58l-0.256,1.908L411.679,194.701z M405.505,185.242c0,0.107-0.15,0.097-0.189,0.027
				C405.274,185.205,405.505,185.091,405.505,185.242z M413.386,188.044l0.117-0.885c0.4,0.228,1.082,0.571,1.264,1.026
				C414.376,188.348,413.753,188.135,413.386,188.044z"/>
		</g>
	</g>
	<g>
		<circle fill="#243870" cx="390.987" cy="172.043" r="15"/>
		<path fill="#FFFFFF" d="M394.646,168.527c0-1.986-1.615-3.599-3.604-3.599c-1.93,0-3.506,1.521-3.596,3.431
			c-0.039-0.002-0.08-0.004-0.121-0.004c-1.988,0-3.6,1.611-3.6,3.601s1.609,3.601,3.6,3.601l0,0v0.002
			c0,1.986,1.613,3.601,3.602,3.601c1.932,0,3.508-1.522,3.596-3.433c0.039,0.004,0.08,0.004,0.123,0.004
			c1.986,0,3.598-1.61,3.598-3.6C398.243,170.141,396.632,168.527,394.646,168.527z"/>
	</g>
</g>
<rect x="196.607" y="98" fill="none" stroke="#010101" stroke-dasharray="6 6" width="150.001" height="190.713"/>
<g>
	<rect id="Orange_Light_BG_1_" x="275.149" y="117.409" fill="#D56928" width="45" height="45"/>
	<g id="Product_Icon_1_">
		<path fill="#FFFFFF" d="M311.442,141.708h-2.996v-1.199h2.996V126.11h-14.399v2.999h-1.199v-2.999
			c0-0.664,0.538-1.202,1.199-1.202h14.399c0.664,0,1.203,0.538,1.203,1.202v14.399
			C312.646,141.173,312.106,141.708,311.442,141.708z"/>
		<path fill="#FFFFFF" d="M298.243,154.909h-14.399c-0.664,0-1.201-0.537-1.201-1.2v-14.401c0-0.661,0.537-1.199,1.201-1.199h2.999
			v1.199h-2.999v14.401h14.399v-2.999h1.199v2.999C299.442,154.373,298.907,154.909,298.243,154.909z"/>
		<path fill="#FFFFFF" d="M307.249,134.509v-1.199h-1.801c-0.051-0.642-0.56-1.15-1.198-1.201v-1.799h-1.201v1.799h-1.798v-1.799
			h-1.199v1.799h-1.802v-1.799h-1.201v1.799h-1.799v-1.799h-1.199v1.799h-1.799v-1.799h-1.201v1.799
			c-0.64,0.051-1.149,0.56-1.199,1.201h-1.801v1.199h1.801v1.8h-1.801v1.2h1.801v1.799h-1.801v1.201h1.801v1.798h-1.801v1.202h1.801
			v1.799h-1.801v1.199h1.801c0.05,0.642,0.56,1.15,1.199,1.201v1.799h1.201v-1.799h1.799v1.799h1.199v-1.799h1.799v1.799h1.201
			v-1.799h1.802v1.799h1.199v-1.799h1.798v1.799h1.201v-1.799c0.641-0.051,1.147-0.559,1.198-1.201h1.801v-1.199h-1.801v-1.799
			h1.801v-1.202h-1.801v-1.798h1.801v-1.201h-1.801v-1.799h1.801v-1.2h-1.801v-1.8H307.249z M304.25,146.401
			c0,0.06-0.05,0.107-0.107,0.107l0,0h-12.987c-0.059,0-0.105-0.047-0.105-0.107l0,0v-12.984c0-0.06,0.049-0.107,0.105-0.107l0,0
			h12.987c0.06,0,0.107,0.047,0.107,0.107l0,0V146.401z"/>
	</g>
</g>
<g>
	<rect id="Orange_Light_BG_2_" x="275.149" y="228.363" fill="#D56928" width="44.998" height="45"/>
	<g id="Product_Icon_2_">
		<path fill="#FFFFFF" d="M311.442,252.663h-2.998v-1.198h2.998v-14.4h-14.398v2.998h-1.199v-2.998c0-0.664,0.537-1.2,1.199-1.2
			h14.398c0.664,0,1.201,0.536,1.201,1.2v14.4C312.643,252.127,312.106,252.663,311.442,252.663z"/>
		<path fill="#FFFFFF" d="M298.243,265.863h-14.402c-0.661,0-1.2-0.537-1.2-1.199v-14.4c0-0.662,0.539-1.199,1.2-1.199h3.001v1.199
			h-3.001v14.4h14.402v-3h1.197v3C299.442,265.326,298.903,265.863,298.243,265.863z"/>
		<path fill="#FFFFFF" d="M307.249,245.463v-1.197h-1.801c-0.051-0.642-0.562-1.148-1.199-1.201v-1.801h-1.201v1.801h-1.801v-1.801
			h-1.197v1.801h-1.801v-1.801h-1.2v1.801h-1.799v-1.801h-1.199v1.801h-1.799v-1.801h-1.201v1.801
			c-0.64,0.053-1.149,0.562-1.198,1.201h-1.802v1.197h1.802v1.801h-1.802v1.2h1.802v1.8h-1.802v1.201h1.802v1.799h-1.802v1.2h1.802
			v1.798h-1.802v1.199h1.802c0.049,0.643,0.559,1.15,1.198,1.201v1.799h1.201v-1.799h1.799v1.799h1.199v-1.799h1.799v1.799h1.2
			v-1.799h1.801v1.799h1.197v-1.799h1.801v1.799h1.201v-1.799c0.64-0.051,1.148-0.559,1.199-1.201h1.801v-1.199h-1.801v-1.798h1.801
			v-1.2h-1.801v-1.799h1.801v-1.201h-1.801v-1.8h1.801v-1.2h-1.801v-1.801H307.249z M304.249,257.355
			c0,0.06-0.049,0.105-0.107,0.105l0,0h-12.986c-0.059,0-0.105-0.048-0.105-0.105l0,0v-12.983c0-0.062,0.049-0.108,0.105-0.108l0,0
			h12.986c0.059,0,0.107,0.047,0.107,0.108l0,0V257.355L304.249,257.355z"/>
	</g>
</g>
<text transform="matrix(1 0 0 1 206.8872 158.6895)" fill="#010101" font-family="'Myriad-Roman'" font-size="15">ECS</text>
<text transform="matrix(1 0 0 1 256.709 285.3564)" fill="#010101" font-family="'Myriad-Roman'" font-size="15">EC2 Instances</text>
<text transform="matrix(1 0 0 1 367.7051 222.5684)" fill="#010101" font-family="'Myriad-Roman'" font-size="15">Persistent</text>
<text transform="matrix(1 0 0 1 374.1699 240.5684)" fill="#010101" font-family="'Myriad-Roman'" font-size="15">Storage</text>
<text transform="matrix(1 0 0 1 356.8975 258.5693)" fill="#010101" font-family="'Myriad-Roman'" font-size="15">(ObjectiveFS)</text>
<text transform="matrix(1 0 0 1 136.9419 226.2646)" fill="#010101" font-family="'Myriad-Roman'" font-size="15">ALB</text>
<text transform="matrix(1 0 0 1 114.1245 91.1504)" fill="#010101" font-family="'Myriad-Roman'" font-size="15">Private Subnet</text>
<text transform="matrix(1 0 0 1 104.4331 55.0664)" fill="#010101" font-family="'Myriad-Roman'" font-size="15">VPC</text>
<text transform="matrix(1 0 0 1 88.9917 17.5693)" fill="#010101" font-family="'Myriad-Roman'" font-size="15">AWS</text>
<rect x="89.459" y="75.5" fill="none" stroke="#010101" stroke-dasharray="6 6" width="374.999" height="218.75"/>
<line fill="none" stroke="#010101" x1="171.638" y1="186.457" x2="275.149" y2="139.909"/>
<line fill="none" stroke="#010101" x1="171.638" y1="186.457" x2="275.149" y2="196.301"/>
<line fill="none" stroke="#010101" x1="171.638" y1="186.457" x2="275.149" y2="250.863"/>
<line fill="none" stroke="#010101" x1="382.374" y1="193.396" x2="320.149" y2="139.909"/>
<line fill="none" stroke="#010101" x1="382.374" y1="193.396" x2="320.149" y2="196.301"/>
<line fill="none" stroke="#010101" x1="382.374" y1="193.396" x2="320.149" y2="250.863"/>
<line fill="none" stroke="#010101" x1="42.76" y1="199.318" x2="126.638" y2="186.457"/>
<rect x="76.959" y="37.999" fill="none" stroke="#010101" stroke-dasharray="6 6" width="399.999" height="268.751"/>
<rect x="64.459" y="0.5" fill="none" stroke="#010101" stroke-dasharray="6 6" width="424.999" height="318.75"/>
<g id="Reference_1_">
	<g id="Icon_Test_1_">
		<path fill="#020202" d="M33.887,94.923H10.763c-1.292,0.068-2.288,1.168-2.226,2.461v14.879c-0.062,1.292,0.934,2.393,2.226,2.461
			h12.774v-1.2H10.763c-0.617-0.089-1.065-0.637-1.026-1.261v-10.139h10.8v9c0,0.331,0.27,0.599,0.6,0.599h4.8v-1.2h-3.93v-0.18
			c-0.003-2.058,1.347-3.872,3.317-4.459c0.936,0.43,2.014,0.43,2.952,0c1.107,0.335,2.051,1.066,2.652,2.054l1.019-0.601l0,0
			c-0.618-1.008-1.525-1.807-2.604-2.292c0.493-0.584,0.761-1.323,0.761-2.088c0-1.822-1.478-3.299-3.3-3.299
			c-1.822,0-3.301,1.477-3.301,3.299c0.016,0.753,0.291,1.476,0.779,2.047c-1.037,0.46-1.917,1.216-2.531,2.171v-8.051h10.2v8.22
			l0,0v0.18h1.2v-5.399h1.8v6h1.2v-10.74c0.061-1.298-0.942-2.398-2.24-2.46C33.906,94.924,33.897,94.924,33.887,94.923z
			 M26.807,100.845c1.153-0.007,2.094,0.923,2.1,2.075l0,0c-0.005,0.755-0.421,1.443-1.085,1.8c-0.635,0.341-1.399,0.341-2.034,0
			c-0.661-0.358-1.075-1.048-1.08-1.8C24.714,101.769,25.654,100.839,26.807,100.845L26.807,100.845z M33.136,100.924v-2.4
			c0-0.333-0.267-0.6-0.599-0.6H21.138c-0.332,0-0.6,0.269-0.6,0.6v2.4h-10.8v-3.54c-0.038-0.624,0.409-1.171,1.026-1.261h23.124
			c0.623,0.083,1.076,0.633,1.038,1.261v3.54H33.136z"/>
		<rect x="10.948" y="105.094" fill="#020202" width="6.589" height="1.2"/>
		<rect x="10.948" y="108.093" fill="#020202" width="4.189" height="1.2"/>
		<rect x="16.35" y="108.093" fill="#020202" width="1.789" height="1.2"/>
		<path fill="#020202" d="M31.955,107.313L31.955,107.313L31.955,107.313z"/>
		<path fill="#020202" d="M32.171,121.953c-3.35,0.017-6.078-2.686-6.095-6.037c-0.016-3.35,2.686-6.079,6.036-6.095
			c0.265-0.001,0.529,0.015,0.792,0.048l0,0c3.327,0.411,5.692,3.442,5.282,6.771c-0.146,1.179-0.635,2.29-1.406,3.195
			c-0.561,0.647-1.25,1.173-2.022,1.543C33.948,121.756,33.066,121.953,32.171,121.953z M32.171,111.021
			c-0.77,0-1.529,0.184-2.214,0.54c-2.384,1.238-3.314,4.176-2.077,6.561c1.201,2.314,4.011,3.27,6.375,2.168
			c0.623-0.294,1.177-0.719,1.626-1.242c1.745-2.042,1.505-5.114-0.539-6.86c-0.729-0.623-1.625-1.016-2.576-1.13l0,0
			c-0.202-0.027-0.403-0.037-0.606-0.037H32.171L32.171,111.021z"/>
		<path fill="#020202" d="M31.218,118.442L31.218,118.442c-0.16,0.001-0.314-0.062-0.428-0.175l-1.938-1.938l0.834-0.847
			l1.512,1.511l3.418-3.424l0.853,0.853l-3.851,3.845C31.511,118.376,31.369,118.439,31.218,118.442z"/>
		<path fill="#020202" d="M31.955,107.313L31.955,107.313L31.955,107.313z"/>
	</g>
</g>
<text transform="matrix(1 0 0 1 12.605 137.7715)" fill="#010101" font-family="'Myriad-Roman'" font-size="15">IDP</text>
<line fill="none" stroke="#010101" x1="132.375" y1="170.271" x2="38.625" y2="104.646"/>
</svg>
