<?xml version="1.0" encoding="utf-8"?>
<!-- Generator: Adobe Illustrator 12.0.0, SVG Export Plug-In . SVG Version: 6.00 Build 51448)  -->
<!DOCTYPE svg PUBLIC "-//W3C//DTD SVG 1.1//EN" "http://www.w3.org/Graphics/SVG/1.1/DTD/svg11.dtd" [
	<!ENTITY ns_svg "http://www.w3.org/2000/svg">
	<!ENTITY ns_xlink "http://www.w3.org/1999/xlink">
]>
<svg  version="1.1" id="Layer_1" xmlns="&ns_svg;" xmlns:xlink="&ns_xlink;" width="525.61" height="349.613"
	 viewBox="0 0 525.61 349.613" overflow="visible" enable-background="new 0 0 525.61 349.613" xml:space="preserve">
<g id="Working">
	<path fill="#D56928" d="M389.079,270.12h-45c-0.553,0-1-0.448-1-1V241c0-0.552,0.447-1,1-1h45c0.552,0,1,0.448,1,1v28.12
		C390.079,269.671,389.63,270.12,389.079,270.12z M345.079,268.12h43V242h-43V268.12z"/>
	<rect x="347.768" y="244.75" fill="#D56928" width="2" height="20.63"/>
	<rect x="353.388" y="244.75" fill="#D56928" width="2" height="20.63"/>
	<rect x="377.768" y="244.75" fill="#D56928" width="2" height="20.63"/>
	<rect x="383.389" y="244.75" fill="#D56928" width="2" height="20.63"/>
	<path fill="#D56928" d="M372.448,262.62h-11.74c-0.934,0-1.688-0.757-1.688-1.689l0,0v-11.74c0-0.934,0.756-1.689,1.688-1.689l0,0
		h11.74c0.935,0,1.69,0.757,1.69,1.689l0,0v11.74C374.138,261.864,373.382,262.62,372.448,262.62L372.448,262.62z M361.018,260.62
		h11.12V249.5h-11.12V260.62z"/>
	<rect x="359.958" y="245.69" fill="#D56928" width="2" height="2.811"/>
	<rect x="363.708" y="245.69" fill="#D56928" width="2" height="2.811"/>
	<rect x="367.458" y="245.69" fill="#D56928" width="2" height="2.811"/>
	<rect x="371.208" y="245.69" fill="#D56928" width="2" height="2.811"/>
	<rect x="359.958" y="261.62" fill="#D56928" width="2" height="2.811"/>
	<rect x="363.708" y="261.62" fill="#D56928" width="2" height="2.811"/>
	<rect x="367.458" y="261.62" fill="#D56928" width="2" height="2.811"/>
	<rect x="371.208" y="261.62" fill="#D56928" width="2" height="2.811"/>
	<rect x="357.208" y="248.44" fill="#D56928" width="2.812" height="2"/>
	<rect x="357.208" y="252.19" fill="#D56928" width="2.812" height="2"/>
	<rect x="357.208" y="255.94" fill="#D56928" width="2.812" height="2"/>
	<rect x="357.208" y="259.69" fill="#D56928" width="2.812" height="2"/>
	<rect x="373.138" y="248.44" fill="#D56928" width="2.81" height="2"/>
	<rect x="373.138" y="252.19" fill="#D56928" width="2.81" height="2"/>
	<rect x="373.138" y="255.94" fill="#D56928" width="2.81" height="2"/>
	<rect x="373.138" y="259.69" fill="#D56928" width="2.81" height="2"/>
</g>
<g id="Working_2_">
	<path fill="#D56928" d="M389.079,210.12h-45c-0.553,0-1-0.447-1-1V181c0-0.553,0.447-1,1-1h45c0.552,0,1,0.447,1,1v28.119
		C390.079,209.672,389.63,210.12,389.079,210.12z M345.079,208.12h43V182h-43V208.12z"/>
	<rect x="347.768" y="184.75" fill="#D56928" width="2" height="20.629"/>
	<rect x="353.388" y="184.75" fill="#D56928" width="2" height="20.629"/>
	<rect x="377.768" y="184.75" fill="#D56928" width="2" height="20.629"/>
	<rect x="383.389" y="184.75" fill="#D56928" width="2" height="20.629"/>
	<path fill="#D56928" d="M375.018,197h-16.88c-0.553,0-1-0.449-1-1v-10.32c0-0.553,0.447-1,1-1h16.88c0.553,0,1,0.447,1,1V196
		C376.018,196.551,375.57,197,375.018,197z M359.138,195h14.88v-8.32h-14.88V195z"/>
	<path fill="#D56928" d="M374.079,205.44h-15c-0.553,0-1-0.447-1-1v-4.689c0-0.552,0.447-1,1-1h15c0.552,0,1,0.448,1,1v4.689
		C375.079,204.992,374.63,205.44,374.079,205.44z M360.079,203.44h13v-2.689h-13V203.44z"/>
	<rect x="369.389" y="201.62" fill="#D56928" width="1.867" height="0.939"/>
	<rect x="365.579" y="196" fill="#D56928" width="2" height="3.75"/>
</g>
<g id="Working_3_">
	<path fill="#D56928" d="M264.974,68.518h-45c-0.553,0-1-0.448-1-1v-28.12c0-0.552,0.447-1,1-1h45c0.552,0,1,0.448,1,1v28.12
		C265.974,68.07,265.526,68.518,264.974,68.518z M220.974,66.518h43v-26.12h-43V66.518z"/>
	<rect x="224.604" y="43.148" fill="#D56928" width="2" height="20.63"/>
	<rect x="230.224" y="43.148" fill="#D56928" width="2" height="20.63"/>
	<rect x="235.854" y="43.148" fill="#D56928" width="2" height="20.63"/>
	<rect x="241.474" y="43.148" fill="#D56928" width="2" height="20.63"/>
	<rect x="247.104" y="43.148" fill="#D56928" width="2" height="20.63"/>
	<rect x="252.724" y="43.148" fill="#D56928" width="2" height="20.63"/>
	<rect x="258.354" y="43.148" fill="#D56928" width="2" height="20.63"/>
</g>
<text transform="matrix(1 0 0 1 340.0552 105.186)" fill="#010101" font-family="'Myriad-Roman'" font-size="18">jupyter</text>
<text transform="matrix(1 0 0 1 337.2388 165.0757)" fill="#010101" font-family="'Myriad-Roman'" font-size="18">RStudio</text>
<text transform="matrix(1 0 0 1 353.2222 225.1763)" fill="#010101" font-family="'Myriad-Roman'" font-size="18">vnc</text>
<text transform="matrix(1 0 0 1 338.5972 284.8589)" fill="#010101" font-family="'Myriad-Roman'" font-size="18">custom</text>
<text transform="matrix(1 0 0 1 227.3994 82.7915)" fill="#010101" font-family="'Myriad-Roman'" font-size="18">hub</text>
<g id="Reference">
	<path fill="#6551A2" d="M140.796,184.561c-13.807,0-25-11.192-25-25c0-13.808,11.193-25,25-25c13.809,0,25,11.192,25,25
		C165.796,173.369,154.605,184.561,140.796,184.561z M140.796,136.561c-12.701,0-23,10.297-23,23c0,12.703,10.299,23.001,23,23.001
		c12.704,0,23-10.298,23-23.001C163.797,146.858,153.5,136.561,140.796,136.561z"/>
	<path fill="#6551A2" d="M155.698,166.561h-1.9v-4c0-0.553-0.446-1.001-1.001-1.001h-2.999v-3.998c0-0.553-0.447-1.001-1.001-1.001
		h-7v-3h7c0.554,0,1.001-0.448,1.001-1v-8.999c0-0.554-0.447-1.001-1.001-1.001h-16c-0.552,0-0.999,0.447-0.999,1.001v8.999
		c0,0.552,0.447,1,0.999,1h7v3h-7c-0.552,0-0.999,0.448-0.999,1.001v3.998h-3c-0.552,0-1.001,0.448-1.001,1.001v4h-1.898
		c-0.553,0-1.001,0.448-1.001,0.999v5c0,0.554,0.448,1.001,1.001,1.001h4.898c0.553,0,1.001-0.447,1.001-1.001v-5
		c0-0.552-0.448-0.999-1.001-0.999h-1v-3h5v3h-1c-0.552,0-1,0.448-1,0.999v5c0,0.554,0.448,1.001,1,1.001h5c0.553,0,1-0.447,1-1.001
		v-5c0-0.552-0.447-0.999-1-0.999h-2v-4c0-0.553-0.447-1.001-1-1.001h-2v-3h14v3h-2c-0.553,0-1.001,0.448-1.001,1.001v4h-2
		c-0.552,0-1.001,0.448-1.001,0.999v5c0,0.554,0.449,1.001,1.001,1.001h5c0.553,0,1-0.447,1-1.001v-5c0-0.552-0.447-0.999-1-0.999
		h-1v-3h5v3h-1.069c-0.553,0-1,0.448-1,0.999v5c0,0.554,0.446,1.001,1,1.001h5c0.553,0,1.001-0.447,1.001-1.001v-5
		c0-0.552-0.448-0.999-1-1.001C155.719,166.559,155.708,166.561,155.698,166.561z M129.796,171.562h-2.898v-3.001h2.898V171.562z
		 M137.796,168.561v3.001h-3v-3.001H137.796z M133.796,151.562v-7h14v7H133.796z M146.797,171.562h-3v-3.001h3V171.562z
		 M154.697,171.562h-3v-3.001h3V171.562z"/>
</g>
<g>
	<g id="Reference_2_">
		<rect id="Green_Gradient_1_" x="492.277" y="137.7" fill="#2C8942" width="33.333" height="33.333"/>
		<g id="Icon_Test_2_">
			<path fill="#FFFFFF" d="M519.581,155.505c-0.131-0.697-0.921-1.191-1.462-1.541c-0.175-0.115-0.648-0.291-0.688-0.447
				c-0.003-0.11,0.011-0.223,0.044-0.328l0.443-3.196c0.129-0.938,0.253-1.876,0.385-2.814c0.112-0.861-0.3-1.439-1.003-1.923
				c-1.43-0.992-3.297-1.392-4.981-1.667c-2.111-0.346-4.26-0.415-6.391-0.209c-1.916,0.14-3.798,0.59-5.568,1.334
				c-0.951,0.445-2.197,1.137-2.039,2.352c0.442,3.608,0.969,7.208,1.451,10.813c0.223,1.648,0.444,3.299,0.667,4.947
				c0.073,0.654,0.491,1.217,1.094,1.479c1.378,0.746,3.085,0.961,4.622,1.102c2.046,0.186,4.104,0.095,6.125-0.27
				c1.281-0.234,3.662-0.623,3.865-2.223c0.254-1.979,0.535-3.964,0.801-5.94l0.098-0.605
				C517.766,156.54,519.833,156.91,519.581,155.505z M508.298,144.145c2.666,0,5.721,0.303,8.113,1.618
				c0.367,0.205,1.227,0.664,0.968,1.206c-0.257,0.541-1.058,0.813-1.548,1.008c-0.696,0.257-1.416,0.458-2.146,0.6
				c-3.172,0.627-6.432,0.695-9.627,0.198c-1.443-0.146-2.847-0.559-4.144-1.212c-0.317-0.183-0.848-0.511-0.701-0.947
				c0.115-0.233,0.3-0.429,0.525-0.559c0.978-0.629,2.063-1.066,3.199-1.294C504.694,144.342,506.495,144.133,508.298,144.145z
				 M515.268,162.878c-0.066,0.521-0.924,0.779-1.332,0.925c-0.851,0.283-1.727,0.48-2.615,0.586c-1.971,0.263-3.969,0.263-5.94,0
				c-1.236-0.095-2.441-0.423-3.558-0.963c-0.309-0.136-0.515-0.433-0.531-0.77c-0.444-3.524-0.952-7.048-1.428-10.573l-0.514-3.823
				c1.009,0.558,2.105,0.943,3.244,1.138c1.219,0.246,2.45,0.409,3.69,0.484c2.438,0.175,4.883,0.04,7.285-0.405
				c1.279-0.186,2.516-0.596,3.65-1.218l-0.943,6.977c-2.253-0.742-4.452-1.633-6.588-2.667c-0.092-0.035-0.184-0.077-0.271-0.129
				c-0.118-0.089-0.088-0.045-0.146-0.182c-0.111-0.254-0.138-0.445-0.371-0.654c-0.432-0.346-1.061-0.275-1.406,0.156
				c-0.346,0.43-0.274,1.06,0.154,1.406c0.197,0.157,0.449,0.234,0.7,0.216c0.152-0.025,0.302-0.069,0.443-0.134
				c0.174-0.053,0.174-0.044,0.355,0.04c2.161,1.055,4.389,1.969,6.667,2.739c0.343,0.11,0.338,0,0.338,0.284
				c-0.015,0.217-0.042,0.431-0.085,0.644l-0.283,2.12L515.268,162.878z M508.411,152.366c0,0.12-0.169,0.107-0.213,0.032
				C508.153,152.323,508.411,152.198,508.411,152.366z M517.167,155.479l0.134-0.982c0.444,0.253,1.199,0.635,1.399,1.141
				C518.265,155.816,517.576,155.581,517.167,155.479z"/>
		</g>
	</g>
	<g>
		<path fill="#243870" d="M508.944,137.7c0,9.206-7.463,16.666-16.667,16.666s-16.667-7.46-16.667-16.666
			c0-9.205,7.462-16.667,16.667-16.667C501.481,121.033,508.944,128.495,508.944,137.7z"/>
		<path fill="#FFFFFF" d="M496.341,133.795c0-2.208-1.791-3.998-4-3.998c-2.146,0-3.896,1.69-3.995,3.812
			c-0.043-0.003-0.091-0.004-0.136-0.004c-2.209,0-3.999,1.791-3.999,4c0,2.211,1.79,4,3.999,4l0,0v0.001c0,2.208,1.791,4,4,4
			c2.146,0,3.897-1.69,3.996-3.813c0.043,0.003,0.09,0.004,0.135,0.004c2.209,0,4-1.791,4-4
			C500.341,135.587,498.551,133.795,496.341,133.795z"/>
	</g>
</g>
<g id="Working_4_">
	<path fill="#020202" d="M48.095,102.872h-45c-0.552,0-1-0.448-1-1v-3C2.089,88.382,9.262,79.25,19.456,76.771
		c0.243-0.055,0.498-0.023,0.719,0.09c3.372,1.841,7.448,1.841,10.82,0c0.217-0.116,0.47-0.149,0.71-0.09
		c10.208,2.468,17.397,11.607,17.39,22.111v3C49.091,102.43,48.644,102.872,48.095,102.872z M4.095,100.872h43v-2
		c0.003-9.434-6.371-17.677-15.5-20.05c-1.863,0.933-3.916,1.422-6,1.43c-2.085,0.003-4.14-0.487-6-1.43
		c-9.131,2.377-15.504,10.624-15.5,20.06V100.872z"/>
	<path fill="#020202" d="M25.595,80.182c-2.062,0.008-4.092-0.509-5.899-1.5c-5.844-3.275-7.927-10.667-4.652-16.512
		c3.275-5.844,10.668-7.927,16.512-4.651c3.829,2.146,6.2,6.193,6.2,10.583c0.003,4.422-2.425,8.488-6.32,10.58l0,0
		C29.643,79.656,27.636,80.171,25.595,80.182z M25.595,57.992c-5.565-0.108-10.166,4.316-10.274,9.881
		c-0.073,3.769,1.961,7.263,5.274,9.059c3.073,1.666,6.779,1.666,9.851,0c4.893-2.655,6.708-8.773,4.053-13.667
		C32.729,60.002,29.308,57.977,25.595,57.992z"/>
</g>
<g id="Working_5_">
	<path fill="#D56928" d="M389.079,90.12h-45c-0.553,0-1-0.448-1-1V61c0-0.552,0.447-1,1-1h45c0.552,0,1,0.448,1,1v28.12
		C390.079,89.672,389.63,90.12,389.079,90.12z M345.079,88.12h43V62h-43V88.12z"/>
	<rect x="347.768" y="64.75" fill="#D56928" width="2" height="20.63"/>
	<rect x="353.388" y="64.75" fill="#D56928" width="2" height="20.63"/>
	<rect x="377.768" y="64.75" fill="#D56928" width="2" height="20.63"/>
	<rect x="383.389" y="64.75" fill="#D56928" width="2" height="20.63"/>
	<path fill="#D56928" d="M372.448,82.62h-11.74c-0.934,0-1.688-0.757-1.688-1.69l0,0V69.19c0-0.933,0.756-1.689,1.688-1.689l0,0
		h11.74c0.935,0,1.69,0.756,1.69,1.689l0,0v11.74C374.138,81.864,373.382,82.62,372.448,82.62L372.448,82.62z M361.018,80.62h11.12
		V69.5h-11.12V80.62z"/>
	<rect x="359.958" y="65.69" fill="#D56928" width="2" height="2.811"/>
	<rect x="363.708" y="65.69" fill="#D56928" width="2" height="2.811"/>
	<rect x="367.458" y="65.69" fill="#D56928" width="2" height="2.811"/>
	<rect x="371.208" y="65.69" fill="#D56928" width="2" height="2.811"/>
	<rect x="359.958" y="81.62" fill="#D56928" width="2" height="2.81"/>
	<rect x="363.708" y="81.62" fill="#D56928" width="2" height="2.81"/>
	<rect x="367.458" y="81.62" fill="#D56928" width="2" height="2.81"/>
	<rect x="371.208" y="81.62" fill="#D56928" width="2" height="2.81"/>
	<rect x="357.208" y="68.44" fill="#D56928" width="2.812" height="2"/>
	<rect x="357.208" y="72.19" fill="#D56928" width="2.812" height="2"/>
	<rect x="357.208" y="75.94" fill="#D56928" width="2.812" height="2"/>
	<rect x="357.208" y="79.69" fill="#D56928" width="2.812" height="2"/>
	<rect x="373.138" y="68.44" fill="#D56928" width="2.81" height="2"/>
	<rect x="373.138" y="72.19" fill="#D56928" width="2.81" height="2"/>
	<rect x="373.138" y="75.94" fill="#D56928" width="2.81" height="2"/>
	<rect x="373.138" y="79.69" fill="#D56928" width="2.81" height="2"/>
</g>
<g id="Working_6_">
	<path fill="#D56928" d="M389.079,150.12h-45c-0.553,0-1-0.448-1-1V121c0-0.552,0.447-1,1-1h45c0.552,0,1,0.448,1,1v28.12
		C390.079,149.673,389.63,150.12,389.079,150.12z M345.079,148.12h43V122h-43V148.12z"/>
	<rect x="347.768" y="124.75" fill="#D56928" width="2" height="20.63"/>
	<rect x="353.388" y="124.75" fill="#D56928" width="2" height="20.63"/>
	<rect x="377.768" y="124.75" fill="#D56928" width="2" height="20.63"/>
	<rect x="383.389" y="124.75" fill="#D56928" width="2" height="20.63"/>
	<path fill="#D56928" d="M372.448,142.62h-11.74c-0.934,0-1.688-0.757-1.688-1.69l0,0v-11.74c0-0.934,0.756-1.689,1.688-1.689l0,0
		h11.74c0.935,0,1.69,0.756,1.69,1.689l0,0v11.74C374.138,141.864,373.382,142.62,372.448,142.62L372.448,142.62z M361.018,140.62
		h11.12V129.5h-11.12V140.62z"/>
	<rect x="359.958" y="125.69" fill="#D56928" width="2" height="2.811"/>
	<rect x="363.708" y="125.69" fill="#D56928" width="2" height="2.811"/>
	<rect x="367.458" y="125.69" fill="#D56928" width="2" height="2.811"/>
	<rect x="371.208" y="125.69" fill="#D56928" width="2" height="2.811"/>
	<rect x="359.958" y="141.62" fill="#D56928" width="2" height="2.81"/>
	<rect x="363.708" y="141.62" fill="#D56928" width="2" height="2.81"/>
	<rect x="367.458" y="141.62" fill="#D56928" width="2" height="2.81"/>
	<rect x="371.208" y="141.62" fill="#D56928" width="2" height="2.81"/>
	<rect x="357.208" y="128.44" fill="#D56928" width="2.812" height="2"/>
	<rect x="357.208" y="132.19" fill="#D56928" width="2.812" height="2"/>
	<rect x="357.208" y="135.94" fill="#D56928" width="2.812" height="2"/>
	<rect x="357.208" y="139.69" fill="#D56928" width="2.812" height="2"/>
	<rect x="373.138" y="128.44" fill="#D56928" width="2.81" height="2"/>
	<rect x="373.138" y="132.19" fill="#D56928" width="2.81" height="2"/>
	<rect x="373.138" y="135.94" fill="#D56928" width="2.81" height="2"/>
	<rect x="373.138" y="139.69" fill="#D56928" width="2.81" height="2"/>
</g>
<g id="Working_7_">
	<path fill="#D56928" d="M389.079,330.12h-45c-0.553,0-1-0.448-1-1V301c0-0.552,0.447-1,1-1h45c0.552,0,1,0.448,1,1v28.12
		C390.079,329.671,389.63,330.12,389.079,330.12z M345.079,328.12h43V302h-43V328.12z"/>
	<rect x="347.768" y="304.75" fill="#D56928" width="2" height="20.63"/>
	<rect x="353.388" y="304.75" fill="#D56928" width="2" height="20.63"/>
	<rect x="377.768" y="304.75" fill="#D56928" width="2" height="20.63"/>
	<rect x="383.389" y="304.75" fill="#D56928" width="2" height="20.63"/>
	<path fill="#D56928" d="M372.448,322.62h-11.739c-0.934,0-1.689-0.757-1.689-1.689l0,0v-11.74c0-0.934,0.757-1.689,1.689-1.689l0,0
		h11.739c0.935,0,1.691,0.757,1.691,1.689l0,0v11.74C374.139,321.864,373.382,322.62,372.448,322.62L372.448,322.62z
		 M361.018,320.62h11.121V309.5h-11.121V320.62z"/>
	<rect x="359.958" y="305.69" fill="#D56928" width="2" height="2.811"/>
	<rect x="363.708" y="305.69" fill="#D56928" width="2" height="2.811"/>
	<rect x="367.458" y="305.69" fill="#D56928" width="1.999" height="2.811"/>
	<rect x="371.208" y="305.69" fill="#D56928" width="2" height="2.811"/>
	<rect x="359.958" y="321.62" fill="#D56928" width="2" height="2.811"/>
	<rect x="363.708" y="321.62" fill="#D56928" width="2" height="2.811"/>
	<rect x="367.458" y="321.62" fill="#D56928" width="1.999" height="2.811"/>
	<rect x="371.208" y="321.62" fill="#D56928" width="2" height="2.811"/>
	<rect x="357.208" y="308.44" fill="#D56928" width="2.811" height="2"/>
	<rect x="357.208" y="312.19" fill="#D56928" width="2.811" height="2"/>
	<rect x="357.208" y="315.94" fill="#D56928" width="2.811" height="2"/>
	<rect x="357.208" y="319.69" fill="#D56928" width="2.811" height="2"/>
	<rect x="373.139" y="308.44" fill="#D56928" width="2.809" height="2"/>
	<rect x="373.139" y="312.19" fill="#D56928" width="2.809" height="2"/>
	<rect x="373.139" y="315.94" fill="#D56928" width="2.809" height="2"/>
	<rect x="373.139" y="319.69" fill="#D56928" width="2.809" height="2"/>
</g>
<text transform="matrix(1 0 0 1 340.0552 345.1128)" fill="#010101" font-family="'Myriad-Roman'" font-size="18">jupyter</text>
<text transform="matrix(0.4512 -0.8924 0.8924 0.4512 175.6968 127.7656)" fill="#010101" font-family="'Myriad-Roman'" font-size="11.9998">/hub/</text>
<text transform="matrix(0.9048 -0.4259 0.4259 0.9048 230.876 120.4253)" fill="#010101" font-family="'Myriad-Roman'" font-size="12.0003">/user_a/jupyter</text>
<g id="Working_8_">
	<path fill="#D56928" d="M389.079,30.12h-45c-0.553,0-1-0.448-1-1V1c0-0.552,0.447-1,1-1h45c0.552,0,1,0.448,1,1v28.12
		C390.079,29.672,389.629,30.12,389.079,30.12z M345.079,28.12h43V2h-43V28.12z"/>
	<rect x="348.708" y="4.75" fill="#D56928" width="2" height="20.63"/>
	<rect x="354.329" y="4.75" fill="#D56928" width="2" height="20.63"/>
	<rect x="359.958" y="4.75" fill="#D56928" width="2" height="20.63"/>
	<rect x="365.579" y="4.75" fill="#D56928" width="1.999" height="20.63"/>
	<rect x="371.208" y="4.75" fill="#D56928" width="2" height="20.63"/>
	<rect x="376.828" y="4.75" fill="#D56928" width="2.001" height="20.63"/>
	<rect x="382.458" y="4.75" fill="#D56928" width="2" height="20.63"/>
</g>
<text transform="matrix(1 0 0 1 331.1636 44.7329)" fill="#010101" font-family="'Myriad-Roman'" font-size="15">provisioner</text>
<text transform="matrix(0.9886 -0.1506 0.1506 0.9886 226.8892 143.5293)" fill="#010101" font-family="'Myriad-Roman'" font-size="12.0001">/user_a/rstudio</text>
<text transform="matrix(0.9834 0.1817 -0.1817 0.9834 234.5728 171.6533)" fill="#010101" font-family="'Myriad-Roman'" font-size="11.9999">/user_a/vnc</text>
<text transform="matrix(0.8672 0.4979 -0.4979 0.8672 228.4443 191.0532)" fill="#010101" font-family="'Myriad-Roman'" font-size="11.9996">/user_a/custom</text>
<text transform="matrix(0.7115 0.7027 -0.7027 0.7115 233.9766 213.854)" fill="#010101" font-family="'Myriad-Roman'" font-size="12.0001">/user_b/jupyter</text>
<line fill="none" stroke="#010101" stroke-width="2" x1="397.48" y1="16.252" x2="476.1" y2="148.572"/>
<line fill="none" stroke="#010101" stroke-width="2" x1="398.77" y1="77.749" x2="476.1" y2="148.572"/>
<line fill="none" stroke="#010101" stroke-width="2" x1="397.48" y1="135.756" x2="476.1" y2="148.572"/>
<line fill="none" stroke="#010101" stroke-width="2" x1="397.48" y1="197.743" x2="476.1" y2="148.572"/>
<line fill="none" stroke="#010101" stroke-width="2" x1="397.48" y1="258.49" x2="476.1" y2="148.572"/>
<line fill="none" stroke="#010101" stroke-width="2" x1="397.48" y1="318.487" x2="476.1" y2="148.572"/>
<line fill="none" stroke="#010101" stroke-width="2" x1="276.736" y1="50.001" x2="335.983" y2="16.252"/>
<line fill="none" stroke="#010101" x1="168.602" y1="159.561" x2="212.989" y2="55.25"/>
<line fill="none" stroke="#010101" stroke-width="2" x1="168.602" y1="159.561" x2="335.983" y2="77.749"/>
<line fill="none" stroke="#010101" stroke-width="2" x1="168.602" y1="159.561" x2="336.083" y2="135.756"/>
<line fill="none" stroke="#010101" stroke-width="2" x1="168.602" y1="159.561" x2="338.494" y2="197.743"/>
<line fill="none" stroke="#010101" stroke-width="2" x1="168.602" y1="159.561" x2="335.983" y2="258.49"/>
<line fill="none" stroke="#010101" stroke-width="2" x1="168.602" y1="159.561" x2="335.983" y2="318.487"/>
<text transform="matrix(1 0 0 1 0.7827 116.7485)" fill="#010101" font-family="'Myriad-Roman'" font-size="18">user_a</text>
<g id="Working_9_">
	<path fill="#020202" d="M48.095,223.618h-45c-0.552,0-1-0.447-1-1v-3c-0.006-10.488,7.167-19.621,17.361-22.1
		c0.243-0.057,0.498-0.023,0.719,0.09c3.372,1.841,7.448,1.841,10.82,0c0.217-0.116,0.47-0.148,0.71-0.09
		c10.208,2.468,17.397,11.607,17.39,22.109v3C49.091,223.176,48.644,223.618,48.095,223.618z M4.095,221.618h43v-2
		c0.003-9.433-6.371-17.677-15.5-20.05c-1.863,0.933-3.916,1.423-6,1.431c-2.085,0.002-4.14-0.486-6-1.431
		c-9.131,2.377-15.504,10.623-15.5,20.06V221.618z"/>
	<path fill="#020202" d="M25.595,200.928c-2.062,0.009-4.092-0.51-5.899-1.5c-5.844-3.274-7.927-10.668-4.652-16.512
		s10.668-7.927,16.512-4.652c3.829,2.146,6.2,6.195,6.2,10.584c0.003,4.423-2.425,8.488-6.32,10.58l0,0
		C29.643,200.402,27.636,200.918,25.595,200.928z M25.595,178.739c-5.565-0.109-10.166,4.314-10.274,9.881
		c-0.073,3.77,1.961,7.264,5.274,9.059c3.073,1.666,6.779,1.666,9.851,0c4.893-2.654,6.708-8.772,4.053-13.666
		C32.729,180.749,29.308,178.723,25.595,178.739z"/>
</g>
<text transform="matrix(1 0 0 1 0 237.4927)" fill="#010101" font-family="'Myriad-Roman'" font-size="18">user_b</text>
<text transform="matrix(1 0 0 1 126.1636 204.4927)" fill="#010101" font-family="'Myriad-Roman'" font-size="18">ALB</text>
<line fill="none" stroke="#010101" stroke-width="2" x1="57.747" y1="93.498" x2="110.995" y2="162.494"/>
<line fill="none" stroke="#010101" stroke-width="2" x1="56.247" y1="207.492" x2="110.995" y2="162.494"/>
</svg>
