<?xml version="1.0" encoding="utf-8"?>
<!-- Generator: Adobe Illustrator 12.0.0, SVG Export Plug-In . SVG Version: 6.00 Build 51448)  -->
<!DOCTYPE svg PUBLIC "-//W3C//DTD SVG 1.1//EN" "http://www.w3.org/Graphics/SVG/1.1/DTD/svg11.dtd" [
	<!ENTITY ns_svg "http://www.w3.org/2000/svg">
	<!ENTITY ns_xlink "http://www.w3.org/1999/xlink">
]>
<svg  version="1.1" id="Layer_1" xmlns="&ns_svg;" xmlns:xlink="&ns_xlink;" width="348.033" height="105.263"
	 viewBox="0 0 348.033 105.263" overflow="visible" enable-background="new 0 0 348.033 105.263" xml:space="preserve">
<g id="Reference">
	<path fill="#6550A1" d="M123.285,56.784c-9.941,0-18-8.059-18-18c0-9.94,8.059-17.999,18-17.999s18,8.059,18,17.999
		C141.285,48.726,133.227,56.784,123.285,56.784z M123.285,22.225c-9.146,0-16.56,7.414-16.56,16.56
		c0,9.146,7.414,16.561,16.56,16.561c9.146,0,16.561-7.414,16.561-16.561C139.846,29.639,132.432,22.225,123.285,22.225z"/>
	<path fill="#6550A1" d="M134.014,43.824h-1.368v-2.88c0-0.398-0.322-0.721-0.721-0.721h-2.159v-2.879
		c0-0.398-0.322-0.721-0.721-0.721h-5.04v-2.16h5.04c0.398,0,0.721-0.322,0.721-0.719v-6.479c0-0.398-0.322-0.721-0.721-0.721
		h-11.52c-0.397,0-0.72,0.322-0.72,0.721v6.479c0,0.396,0.322,0.719,0.72,0.719h5.04v2.16h-5.04c-0.397,0-0.72,0.322-0.72,0.721
		v2.879h-2.16c-0.397,0-0.721,0.322-0.721,0.721v2.88h-1.367c-0.398,0-0.721,0.322-0.721,0.72v3.6c0,0.398,0.322,0.721,0.721,0.721
		h3.527c0.397,0,0.721-0.322,0.721-0.721v-3.6c0-0.397-0.323-0.72-0.721-0.72h-0.72v-2.16h3.6v2.16h-0.72
		c-0.397,0-0.72,0.322-0.72,0.72v3.6c0,0.398,0.322,0.721,0.72,0.721h3.601c0.397,0,0.72-0.322,0.72-0.721v-3.6
		c0-0.397-0.322-0.72-0.72-0.72h-1.44v-2.88c0-0.398-0.322-0.721-0.72-0.721h-1.44v-2.16h10.08v2.16h-1.439
		c-0.398,0-0.721,0.322-0.721,0.721v2.88h-1.439c-0.397,0-0.721,0.322-0.721,0.72v3.6c0,0.398,0.323,0.721,0.721,0.721h3.6
		c0.397,0,0.72-0.322,0.72-0.721v-3.6c0-0.397-0.322-0.72-0.72-0.72h-0.72v-2.16h3.6v2.16h-0.771c-0.397,0-0.72,0.322-0.72,0.72v3.6
		c0,0.398,0.322,0.721,0.72,0.721h3.6c0.398,0,0.721-0.322,0.721-0.721v-3.6c0-0.397-0.322-0.72-0.72-0.721
		C134.028,43.823,134.021,43.824,134.014,43.824z M115.365,47.425h-2.088v-2.16h2.088V47.425z M121.125,45.265v2.16h-2.16v-2.16
		H121.125z M118.245,33.025v-5.04h10.08v5.04H118.245z M127.605,47.425h-2.16v-2.16h2.16V47.425z M133.293,47.425h-2.16v-2.16h2.16
		V47.425z"/>
</g>
<g>
	<rect id="Orange_Gradient" x="161.26" y="0.843" fill="#D56828" width="18" height="18"/>
	<g id="Icon_Test">
		<path fill="#FFFFFF" d="M170.209,16.309c-0.045,0.001-0.089-0.011-0.127-0.034l-5.462-3.148c-0.079-0.046-0.127-0.13-0.127-0.221
			v-6.38c0-0.091,0.049-0.175,0.127-0.221l5.023-2.894c0.109-0.076,0.259-0.05,0.334,0.059c0.032,0.046,0.047,0.102,0.042,0.157
			v2.762c0,0.088-0.046,0.168-0.12,0.214l-2.513,1.44v3.346l2.83,1.634l2.475-1.439c0.074-0.043,0.166-0.043,0.24,0l2.381,1.367
			c0.079,0.046,0.127,0.13,0.127,0.222c0.002,0.091-0.047,0.175-0.127,0.218l-4.979,2.88
			C170.295,16.294,170.253,16.307,170.209,16.309z M164.979,12.733l5.359,3.094l4.601-2.659l-1.92-1.106l-2.551,1.474
			c-0.082,0.046-0.181,0.046-0.262,0l-3.188-1.839c-0.078-0.045-0.127-0.128-0.127-0.218V7.914
			c-0.003-0.091,0.047-0.176,0.127-0.219l2.513-1.439V4.052l-4.56,2.64L164.979,12.733z"/>
		<path fill="#FFFFFF" d="M175.766,12.603c-0.045,0-0.089-0.012-0.128-0.033l-2.378-1.375c-0.08-0.043-0.13-0.128-0.127-0.219V8.07
			l-2.513-1.45c-0.079-0.044-0.127-0.128-0.127-0.218V3.639c-0.002-0.09,0.046-0.173,0.125-0.216c0.074-0.043,0.166-0.043,0.24,0
			l5.042,2.896c0.079,0.045,0.127,0.128,0.127,0.219v5.801c0,0.091-0.048,0.175-0.127,0.221
			C175.859,12.586,175.813,12.601,175.766,12.603z M173.62,10.815l1.92,1.104V6.699l-4.561-2.64V6.25l2.521,1.459
			c0.08,0.043,0.129,0.128,0.127,0.219L173.62,10.815z"/>
	</g>
</g>
<g id="Working_2_">
	<path fill="#010101" d="M9.497,39.541H0.72C0.322,39.541,0,39.219,0,38.82v-1.08c-0.005-3.955,2.701-7.398,6.545-8.33
		c0.176-0.041,0.36-0.016,0.518,0.072c1.109,0.594,2.441,0.594,3.55,0c0.158-0.088,0.343-0.113,0.519-0.072
		c0.978,0.239,1.907,0.648,2.743,1.209l-0.807,1.195c-0.621-0.408-1.304-0.717-2.022-0.914c-1.401,0.645-3.013,0.645-4.414,0
		c-3.068,0.863-5.188,3.66-5.191,6.848v0.353h8.057V39.541z"/>
	<path fill="#010101" d="M8.827,31.354c-2.609,0-4.723-2.114-4.723-4.724c0-2.608,2.114-4.723,4.723-4.723
		c2.604-0.025,4.735,2.066,4.761,4.671c0.016,1.747-0.935,3.36-2.472,4.192l0,0C10.414,31.154,9.627,31.354,8.827,31.354z
		 M8.827,23.348c-1.823-0.008-3.308,1.461-3.319,3.283c-0.001,1.202,0.657,2.309,1.714,2.881c1.001,0.543,2.21,0.543,3.211,0l0,0
		c1.59-0.863,2.181-2.851,1.319-4.441c-0.58-1.071-1.707-1.732-2.925-1.715V23.348z"/>
	<path fill="#010101" d="M33.12,39.541h-8.777v-1.44H32.4v-0.36c-0.005-3.188-2.129-5.981-5.198-6.84
		c-1.399,0.652-3.015,0.652-4.414,0c-0.733,0.201-1.427,0.524-2.052,0.958l-0.813-1.181c0.833-0.587,1.769-1.014,2.758-1.26
		c0.175-0.041,0.358-0.018,0.518,0.064c1.112,0.602,2.453,0.602,3.564,0c0.157-0.084,0.339-0.107,0.511-0.064
		c3.847,0.928,6.556,4.373,6.552,8.33v1.072C33.826,39.213,33.512,39.533,33.12,39.541z"/>
	<path fill="#010101" d="M24.984,31.354c-2.629-0.004-4.757-2.138-4.752-4.767c0.003-2.628,2.137-4.756,4.766-4.752
		s4.756,2.138,4.752,4.766c-0.003,1.738-0.952,3.336-2.477,4.17l0,0C26.571,31.154,25.784,31.354,24.984,31.354z M24.984,23.348
		c-1.823-0.008-3.308,1.461-3.32,3.283c-0.002,1.202,0.656,2.309,1.714,2.881c1.001,0.543,2.21,0.543,3.211,0l0,0
		c1.595-0.855,2.195-2.84,1.341-4.436C27.35,23.993,26.212,23.326,24.984,23.348z"/>
	<path fill="#010101" d="M28.396,55.733H5.4c-0.398,0-0.72-0.323-0.72-0.72v-1.527c-0.015-5.465,3.718-10.228,9.029-11.52
		c0.174-0.044,0.36-0.021,0.518,0.064c1.665,0.891,3.663,0.891,5.328,0c0.158-0.086,0.343-0.108,0.519-0.064
		c5.317,1.283,9.059,6.05,9.042,11.52v1.527C29.116,55.41,28.794,55.733,28.396,55.733L28.396,55.733z M6.12,54.293h21.556v-0.807
		c-0.001-4.696-3.153-8.809-7.689-10.029c-1.956,0.947-4.236,0.947-6.192,0c-4.53,1.227-7.676,5.338-7.675,10.029V54.293z"/>
	<path fill="#010101" d="M16.92,44.142c-1.089,0.003-2.161-0.271-3.118-0.792c-3.141-1.716-4.295-5.652-2.58-8.793
		s5.652-4.297,8.793-2.58c3.141,1.715,4.296,5.652,2.58,8.793c-0.595,1.09-1.491,1.984-2.58,2.58l0,0
		C19.066,43.867,18.002,44.141,16.92,44.142z M16.92,32.802c-2.731-0.031-4.972,2.157-5.002,4.889
		c-0.021,1.831,0.969,3.522,2.576,4.399c1.508,0.81,3.323,0.81,4.831,0l0,0c2.402-1.293,3.301-4.289,2.008-6.691
		C20.461,33.779,18.76,32.777,16.92,32.802z"/>
</g>
<g>
	<g id="Reference_2_">
		<rect id="Green_Gradient_1_" x="306.441" y="34.909" fill="#2A8942" width="24" height="23.999"/>
		<g id="Icon_Test_2_">
			<path fill="#FFFFFF" d="M326.1,47.728c-0.094-0.502-0.663-0.857-1.053-1.109c-0.125-0.082-0.468-0.209-0.496-0.321
				c-0.002-0.079,0.008-0.16,0.031-0.236l0.32-2.301c0.093-0.676,0.182-1.351,0.275-2.026c0.082-0.62-0.215-1.036-0.721-1.385
				c-1.029-0.714-2.374-1.002-3.587-1.2c-1.521-0.249-3.067-0.299-4.602-0.15c-1.38,0.101-2.733,0.425-4.01,0.96
				c-0.685,0.32-1.581,0.818-1.468,1.693c0.318,2.598,0.697,5.189,1.045,7.785c0.16,1.187,0.32,2.375,0.48,3.562
				c0.053,0.471,0.354,0.876,0.787,1.065c0.992,0.537,2.221,0.691,3.328,0.793c1.473,0.134,2.955,0.068,4.41-0.194
				c0.922-0.169,2.637-0.448,2.783-1.601c0.183-1.426,0.385-2.854,0.576-4.277l0.07-0.436
				C324.793,48.473,326.281,48.739,326.1,47.728z M317.978,39.548c1.92,0,4.118,0.219,5.841,1.165
				c0.265,0.147,0.883,0.478,0.697,0.868c-0.186,0.39-0.762,0.585-1.114,0.726c-0.503,0.186-1.02,0.33-1.546,0.433
				c-2.283,0.451-4.63,0.5-6.932,0.143c-1.039-0.105-2.049-0.402-2.982-0.873c-0.229-0.131-0.61-0.367-0.505-0.682
				c0.083-0.168,0.215-0.309,0.378-0.402c0.703-0.453,1.484-0.768,2.304-0.932C315.382,39.69,316.678,39.54,317.978,39.548z
				 M322.995,53.036c-0.048,0.375-0.666,0.561-0.96,0.666c-0.611,0.204-1.242,0.346-1.882,0.422c-1.42,0.189-2.858,0.189-4.278,0
				c-0.89-0.068-1.758-0.305-2.561-0.693c-0.223-0.098-0.371-0.312-0.383-0.555c-0.32-2.537-0.686-5.074-1.028-7.612l-0.37-2.752
				c0.727,0.401,1.517,0.679,2.336,0.819c0.877,0.178,1.766,0.295,2.658,0.349c1.754,0.126,3.516,0.028,5.245-0.291
				c0.921-0.134,1.812-0.43,2.628-0.877l-0.679,5.023c-1.622-0.534-3.206-1.176-4.743-1.92c-0.066-0.025-0.133-0.056-0.195-0.093
				c-0.086-0.063-0.063-0.032-0.105-0.131c-0.08-0.183-0.1-0.32-0.268-0.471c-0.312-0.249-0.764-0.198-1.013,0.112
				c-0.249,0.31-0.198,0.763,0.111,1.013c0.142,0.113,0.322,0.168,0.504,0.155c0.11-0.019,0.218-0.05,0.319-0.097
				c0.125-0.038,0.125-0.031,0.257,0.029c1.556,0.76,3.159,1.418,4.8,1.972c0.246,0.079,0.243,0,0.243,0.204
				c-0.011,0.156-0.03,0.311-0.062,0.464l-0.204,1.526L322.995,53.036z M318.058,45.468c0,0.086-0.122,0.077-0.153,0.022
				C317.872,45.437,318.058,45.347,318.058,45.468z M324.361,47.709l0.096-0.708c0.32,0.183,0.864,0.457,1.008,0.822
				C325.152,47.951,324.656,47.782,324.361,47.709z"/>
		</g>
	</g>
	<g>
		<circle fill="#243770" cx="306.441" cy="34.909" r="12"/>
		<path fill="#FFFFFF" d="M309.368,32.098c0-1.59-1.29-2.879-2.88-2.879c-1.545,0-2.806,1.217-2.877,2.744
			c-0.031-0.002-0.064-0.003-0.098-0.003c-1.59,0-2.879,1.29-2.879,2.88c0,1.591,1.289,2.879,2.879,2.879l0,0v0.001
			c0,1.59,1.29,2.88,2.881,2.88c1.545,0,2.806-1.218,2.877-2.745c0.031,0.002,0.064,0.003,0.097,0.003c1.591,0,2.88-1.29,2.88-2.879
			C312.248,33.388,310.959,32.098,309.368,32.098z"/>
	</g>
</g>
<rect x="161.26" y="0.5" fill="none" stroke="#000000" stroke-dasharray="6 6" width="86.459" height="76.569"/>
<g>
	<rect id="Orange_Light_BG_1_" x="188.708" y="20.785" fill="#D56828" width="36" height="35.999"/>
	<g id="Product_Icon_1_">
		<path fill="#FFFFFF" d="M217.743,40.224h-2.398v-0.959h2.398V27.746h-11.52v2.399h-0.959v-2.399c0-0.531,0.43-0.961,0.959-0.961
			h11.52c0.531,0,0.961,0.43,0.961,0.961v11.519C218.704,39.795,218.274,40.224,217.743,40.224z"/>
		<path fill="#FFFFFF" d="M207.185,50.784h-11.521c-0.53,0-0.96-0.43-0.96-0.96V38.304c0-0.529,0.43-0.959,0.96-0.959h2.4v0.959
			h-2.4v11.521h11.521v-2.399h0.959v2.399C208.144,50.354,207.714,50.784,207.185,50.784z"/>
		<path fill="#FFFFFF" d="M214.39,34.464v-0.958h-1.441c-0.041-0.513-0.447-0.92-0.959-0.961v-1.439h-0.961v1.439h-1.439v-1.439
			h-0.959v1.439h-1.441v-1.439h-0.961v1.439h-1.44v-1.439h-0.959v1.439h-1.439v-1.439h-0.961v1.439
			c-0.512,0.041-0.919,0.448-0.959,0.961h-1.44v0.958h1.44v1.44h-1.44v0.96h1.44v1.439h-1.44v0.961h1.44v1.439h-1.44v0.961h1.44
			v1.439h-1.44v0.959h1.44c0.04,0.514,0.447,0.92,0.959,0.961v1.439h0.961v-1.439h1.439v1.439h0.959v-1.439h1.44v1.439h0.961v-1.439
			h1.441v1.439h0.959v-1.439h1.439v1.439h0.961v-1.439c0.512-0.041,0.918-0.447,0.959-0.961h1.441v-0.959h-1.441v-1.439h1.441
			v-0.961h-1.441v-1.439h1.441v-0.961h-1.441v-1.439h1.441v-0.96h-1.441v-1.44H214.39z M211.989,43.978
			c0,0.048-0.039,0.086-0.086,0.086l0,0h-10.39c-0.047,0-0.086-0.038-0.086-0.086l0,0V33.592c0-0.048,0.039-0.086,0.086-0.086l0,0
			h10.39c0.047,0,0.086,0.038,0.086,0.086l0,0V43.978z"/>
	</g>
</g>
<text transform="matrix(1 0 0 1 198.4854 97.3584)" font-family="'Myriad-Roman'" font-size="12">ECS</text>
<text transform="matrix(1 0 0 1 197.0938 72.4482)" font-family="'Myriad-Roman'" font-size="12">EC2</text>
<text transform="matrix(1 0 0 1 290.1396 73.4619)"><tspan x="0" y="0" font-family="'Myriad-Roman'" font-size="12">Persistent</tspan><tspan x="5.172" y="14.4" font-family="'Myriad-Roman'" font-size="12">Storage</tspan><tspan x="-8.646" y="28.801" font-family="'Myriad-Roman'" font-size="12">(ObjectiveFS)</tspan></text>
<text transform="matrix(1 0 0 1 113.5293 86.4189)" font-family="'Myriad-Roman'" font-size="12">ALB</text>
<line fill="none" stroke="#000000" stroke-width="3" x1="42.875" y1="38.785" x2="100.875" y2="38.785"/>
<line fill="none" stroke="#000000" stroke-width="3" x1="147.875" y1="38.785" x2="180.875" y2="38.785"/>
<line fill="none" stroke="#000000" stroke-width="3" x1="229.875" y1="39.785" x2="287.875" y2="39.785"/>
</svg>
