<?xml version="1.0" encoding="utf-8"?>
<!-- Generator: Adobe Illustrator 12.0.0, SVG Export Plug-In . SVG Version: 6.00 Build 51448)  -->
<!DOCTYPE svg PUBLIC "-//W3C//DTD SVG 1.1//EN" "http://www.w3.org/Graphics/SVG/1.1/DTD/svg11.dtd" [
	<!ENTITY ns_svg "http://www.w3.org/2000/svg">
	<!ENTITY ns_xlink "http://www.w3.org/1999/xlink">
]>
<svg  version="1.1" id="Layer_1" xmlns="&ns_svg;" xmlns:xlink="&ns_xlink;" width="324.816" height="216.256"
	 viewBox="0 0 324.816 216.256" overflow="visible" enable-background="new 0 0 324.816 216.256" xml:space="preserve">
<g>
	<rect id="Orange_Light_BG_1_" y="5.625" fill="#D56928" width="100" height="100.001"/>
	<g id="Product_Icon_1_">
		<path fill="#FFFFFF" d="M80.653,59.625h-6.66V56.96h6.66V24.962H48.654v6.664h-2.664v-6.664c0-1.476,1.193-2.671,2.664-2.671
			h31.999c1.476,0,2.669,1.195,2.669,2.671V56.96C83.322,58.433,82.129,59.625,80.653,59.625z"/>
		<path fill="#FFFFFF" d="M51.324,88.959H19.32c-1.47,0-2.664-1.193-2.664-2.67V54.289c0-1.469,1.194-2.664,2.664-2.664h6.667v2.664
			H19.32V86.29h32.004v-6.662h2.663v6.662C53.987,87.766,52.797,88.959,51.324,88.959z"/>
		<path fill="#FFFFFF" d="M71.338,43.625v-2.664h-4.004c-0.114-1.426-1.239-2.556-2.664-2.669v-3.997h-2.669v3.997h-3.996v-3.997
			h-2.664v3.997H51.34v-3.997h-2.669v3.997h-4.004v-3.997h-2.664v3.997h-3.996v-3.997h-2.669v3.997
			c-1.421,0.114-2.553,1.244-2.664,2.669h-4.001v2.664h4.001v4h-4.001v2.667h4.001v3.997h-4.001v2.669h4.001v3.996h-4.001v2.672
			h4.001v3.996h-4.001v2.664h4.001c0.111,1.427,1.242,2.555,2.664,2.669v3.998h2.669v-3.998h3.996v3.998h2.664v-3.998h4.004v3.998
			h2.669v-3.998h4.001v3.998h2.664v-3.998h3.996v3.998h2.669v-3.998c1.425-0.114,2.55-1.242,2.664-2.669h4.004v-2.664h-4.004v-3.996
			h4.004v-2.672h-4.004v-3.996h4.004v-2.669h-4.004v-3.997h4.004v-2.667h-4.004v-4H71.338z M64.67,70.052
			c0,0.136-0.108,0.238-0.238,0.238l0,0h-28.86c-0.13,0-0.239-0.103-0.239-0.238l0,0V41.2c0-0.133,0.108-0.238,0.239-0.238l0,0
			h28.86c0.13,0,0.238,0.105,0.238,0.238l0,0V70.052z"/>
	</g>
</g>
<g>
	<g id="Reference_2_">
		<rect id="Green_Gradient_1_" x="213.813" y="20.774" fill="#2C8942" width="24" height="24"/>
		<g id="Icon_Test_2_">
			<path fill="#FFFFFF" d="M233.471,33.594c-0.094-0.503-0.662-0.857-1.053-1.109c-0.125-0.082-0.467-0.209-0.496-0.321
				c-0.002-0.079,0.008-0.16,0.031-0.235l0.32-2.302c0.094-0.676,0.182-1.351,0.275-2.026c0.082-0.619-0.215-1.035-0.721-1.385
				c-1.029-0.714-2.375-1.002-3.588-1.199c-1.521-0.25-3.066-0.3-4.602-0.15c-1.381,0.101-2.732,0.425-4.01,0.96
				c-0.686,0.319-1.582,0.817-1.469,1.692c0.318,2.599,0.697,5.189,1.045,7.785c0.16,1.188,0.32,2.375,0.48,3.563
				c0.053,0.471,0.354,0.876,0.787,1.064c0.992,0.537,2.221,0.691,3.328,0.793c1.473,0.135,2.955,0.068,4.41-0.193
				c0.922-0.169,2.637-0.448,2.783-1.602c0.182-1.426,0.385-2.854,0.574-4.276l0.07-0.437
				C232.165,34.338,233.653,34.604,233.471,33.594z M225.35,25.414c1.92,0,4.117,0.219,5.84,1.165
				c0.266,0.146,0.885,0.479,0.697,0.868c-0.186,0.39-0.762,0.585-1.113,0.726c-0.504,0.186-1.02,0.33-1.547,0.434
				c-2.283,0.451-4.629,0.5-6.932,0.143c-1.039-0.105-2.049-0.402-2.982-0.873c-0.229-0.131-0.609-0.367-0.504-0.682
				c0.082-0.168,0.215-0.31,0.377-0.402c0.703-0.453,1.484-0.768,2.305-0.932C222.754,25.557,224.049,25.406,225.35,25.414z
				 M230.368,38.901c-0.049,0.375-0.666,0.562-0.961,0.666c-0.611,0.205-1.242,0.347-1.883,0.423c-1.42,0.188-2.857,0.188-4.277,0
				c-0.891-0.068-1.758-0.306-2.561-0.693c-0.223-0.098-0.371-0.312-0.383-0.555c-0.32-2.537-0.686-5.074-1.029-7.612l-0.369-2.752
				c0.727,0.401,1.518,0.68,2.336,0.819c0.877,0.178,1.766,0.295,2.658,0.349c1.754,0.126,3.516,0.028,5.244-0.291
				c0.922-0.134,1.813-0.43,2.629-0.877l-0.68,5.023c-1.621-0.534-3.205-1.176-4.742-1.92c-0.066-0.025-0.133-0.057-0.195-0.094
				c-0.086-0.063-0.063-0.031-0.105-0.131c-0.08-0.183-0.1-0.32-0.268-0.471c-0.313-0.249-0.764-0.198-1.014,0.111
				c-0.248,0.311-0.197,0.764,0.111,1.014c0.143,0.113,0.322,0.168,0.504,0.154c0.111-0.019,0.219-0.049,0.32-0.096
				c0.125-0.039,0.125-0.031,0.256,0.028c1.557,0.76,3.16,1.418,4.801,1.972c0.246,0.079,0.242,0,0.242,0.204
				c-0.01,0.156-0.029,0.312-0.063,0.464l-0.203,1.526L230.368,38.901z M225.43,31.333c0,0.086-0.123,0.077-0.154,0.022
				C225.245,31.303,225.43,31.212,225.43,31.333z M231.733,33.575l0.098-0.708c0.318,0.183,0.863,0.457,1.008,0.821
				C232.524,33.817,232.028,33.647,231.733,33.575z"/>
		</g>
	</g>
	<g>
		<circle fill="#243870" cx="213.813" cy="20.774" r="12"/>
		<path fill="#FFFFFF" d="M216.741,17.962c0-1.59-1.291-2.879-2.881-2.879c-1.545,0-2.807,1.217-2.877,2.744
			c-0.031-0.002-0.064-0.003-0.098-0.003c-1.59,0-2.879,1.29-2.879,2.88c0,1.592,1.289,2.88,2.879,2.88l0,0v0.001
			c0,1.59,1.289,2.88,2.881,2.88c1.545,0,2.807-1.218,2.877-2.744c0.031,0.002,0.064,0.002,0.098,0.002
			c1.59,0,2.879-1.289,2.879-2.879C219.62,19.252,218.331,17.962,216.741,17.962z"/>
	</g>
</g>
<g id="Working">
	<rect x="201.814" y="70.756" fill="#2C8942" width="36" height="36"/>
	<path fill="#FFFFFF" d="M232.089,105.676h-24.516c-2.564,0.02-4.66-2.043-4.68-4.607c0-0.013,0-0.024,0-0.037V76.516
		c-0.02-2.564,2.043-4.66,4.607-4.68c0.024,0,0.049,0,0.072,0h24.553c2.564,0.02,4.627,2.115,4.607,4.68l0,0v24.553
		C236.714,103.618,234.641,105.676,232.089,105.676z M207.574,73.276c-1.773-0.016-3.224,1.409-3.24,3.182c0,0.019,0,0.039,0,0.058
		v24.553c0.024,1.768,1.473,3.184,3.24,3.168h24.553c1.768-0.004,3.199-1.437,3.203-3.205V76.516
		c0.017-1.773-1.408-3.224-3.182-3.24c-0.02,0-0.038,0-0.059,0H207.574z"/>
	<path fill="#FFFFFF" d="M231.967,86.776h-24.3c-0.397,0-0.721-0.322-0.721-0.72v-8.1c0-0.398,0.323-0.72,0.721-0.72h24.3
		c0.398,0,0.72,0.322,0.72,0.72v8.1C232.687,86.454,232.366,86.776,231.967,86.776z M208.388,85.336h22.859v-6.66h-22.859V85.336z"
		/>
	<path fill="#FFFFFF" d="M231.967,100.952h-24.3c-0.397,0-0.721-0.322-0.721-0.72V90.109c0-0.397,0.323-0.72,0.721-0.72h24.3
		c0.398,0,0.72,0.322,0.72,0.72v10.123C232.687,100.63,232.366,100.952,231.967,100.952z M208.388,99.513h22.859v-8.684h-22.859
		V99.513z"/>
	<rect x="215.047" y="77.956" fill="#FFFFFF" width="1.44" height="8.1"/>
	<rect x="223.148" y="77.956" fill="#FFFFFF" width="1.439" height="8.1"/>
	<rect x="215.047" y="90.109" fill="#FFFFFF" width="1.44" height="10.123"/>
	<rect x="223.148" y="90.109" fill="#FFFFFF" width="1.439" height="10.123"/>
</g>
<title>Amazon-Elastic-Block-Store-EBS_light-bg</title>
<g id="Reference">
	<rect id="Green_Light_BG" x="100" y="69.625" fill="#2C8942" width="36" height="36"/>
	<g id="Product_Icon">
		<path fill="#FFFFFF" d="M123.746,82.052c-0.01-0.063-0.024-0.126-0.043-0.187c-0.427-1.306-3.082-1.982-5.702-1.982
			s-5.28,0.677-5.702,1.982c-0.019,0.061-0.034,0.123-0.043,0.187c-0.005,0.062-0.005,0.122,0,0.183v10.719
			c0,1.546,2.88,2.353,5.76,2.353c2.88,0,5.76-0.807,5.76-2.353V82.235C123.77,82.173,123.76,82.113,123.746,82.052z
			 M117.985,80.843c2.746,0,4.387,0.72,4.733,1.209c-0.355,0.48-1.997,1.205-4.733,1.205c-2.736,0-4.377-0.71-4.732-1.205
			c0.36-0.489,2.001-1.209,4.747-1.209H117.985z M122.786,92.954c0,0.479-1.694,1.392-4.8,1.392c-3.105,0-4.8-0.921-4.8-1.392
			v-9.725c1.09,0.652,2.952,0.988,4.8,0.988c1.849,0,3.71-0.336,4.8-0.988V92.954z"/>
		<path fill="#FFFFFF" d="M112.298,81.866c-0.019,0.061-0.034,0.123-0.043,0.187c-0.005-0.062-0.005-0.124,0-0.187H112.298z"/>
		<path fill="#FFFFFF" d="M123.76,81.866c0.005,0.063,0.005,0.125,0,0.187c-0.01-0.063-0.024-0.126-0.043-0.187H123.76z"/>
		<path fill="#FFFFFF" d="M111.141,80.084l-0.682,0.682l-3.499-3.499v2.678H106v-3.839c0-0.266,0.215-0.48,0.48-0.48h3.84v0.96
			h-2.678L111.141,80.084z"/>
		<path fill="#FFFFFF" d="M130,76.106v3.839h-0.96v-2.678l-3.499,3.499l-0.682-0.682l3.5-3.499h-2.678v-0.96h3.84
			C129.785,75.625,130,75.84,130,76.106L130,76.106z"/>
		<path fill="#FFFFFF" d="M107.642,98.666h2.678v0.96h-3.84c-0.265,0-0.48-0.215-0.48-0.48v-3.839h0.96v2.678l3.499-3.499
			l0.682,0.682L107.642,98.666z"/>
		<path fill="#FFFFFF" d="M130,95.306v3.839c0,0.266-0.215,0.48-0.48,0.48h-3.84v-0.96h2.678l-3.5-3.499l0.682-0.682l3.499,3.499
			v-2.678H130z"/>
	</g>
</g>
<text transform="matrix(1 0 0 1 107.1079 121.2559)" font-family="'Myriad-Roman'" font-size="12">EBS</text>
<text transform="matrix(1 0 0 1 210.981 121.2559)" font-family="'Myriad-Roman'" font-size="12">EFS</text>
<text transform="matrix(1 0 0 1 189.9517 57.2559)" font-family="'Myriad-Roman'" font-size="12">ObjectiveFS</text>
<text transform="matrix(0.5 0 0 1 253.311 89.7539)" font-family="'TimesNewRomanPSMT'" font-size="108">}</text>
<text transform="matrix(1 0 0 1 281.8442 57.7578)"><tspan x="0" y="0" font-family="'Myriad-Roman'" font-size="12">Network</tspan><tspan x="1.974" y="14.4" font-family="'Myriad-Roman'" font-size="12">Storage</tspan></text>
<line fill="none" stroke="#000000" stroke-width="2" x1="188.27" y1="89.256" x2="99.27" y2="48.256"/>
<line fill="none" stroke="#000000" stroke-width="2" x1="193.27" y1="30.256" x2="99.27" y2="48.256"/>
<g id="Working_2_">
	<rect x="92.983" y="161.676" fill="#D56928" width="36" height="36"/>
	<path fill="#FFFFFF" d="M123.259,196.596H98.743c-2.564,0.02-4.66-2.043-4.68-4.607c0-0.013,0-0.024,0-0.037v-24.516
		c-0.02-2.564,2.043-4.66,4.608-4.68c0.024,0,0.048,0,0.072,0h24.552c2.565,0.02,4.627,2.115,4.608,4.68l0,0v24.553
		C127.884,194.538,125.81,196.596,123.259,196.596z M98.743,164.195c-1.773-0.016-3.224,1.409-3.24,3.183c0,0.02,0,0.038,0,0.058
		v24.553c0.024,1.768,1.472,3.184,3.24,3.168h24.552c1.768-0.004,3.2-1.437,3.204-3.205v-24.516c0.017-1.773-1.408-3.224-3.182-3.24
		c-0.02,0-0.039,0-0.058,0H98.743z"/>
	<path fill="#FFFFFF" d="M123.137,177.695h-24.3c-0.397,0-0.72-0.322-0.72-0.72v-8.1c0-0.397,0.323-0.72,0.72-0.72h24.3
		c0.398,0,0.72,0.322,0.72,0.72v8.1C123.857,177.373,123.535,177.695,123.137,177.695z M99.557,176.256h22.86v-6.66h-22.86V176.256z
		"/>
	<path fill="#FFFFFF" d="M123.137,191.872h-24.3c-0.397,0-0.72-0.322-0.72-0.72v-10.123c0-0.397,0.323-0.72,0.72-0.72h24.3
		c0.398,0,0.72,0.322,0.72,0.72v10.123C123.857,191.55,123.535,191.872,123.137,191.872z M99.557,190.433h22.86v-8.684h-22.86
		V190.433z"/>
	<rect x="106.217" y="168.876" fill="#FFFFFF" width="1.44" height="8.1"/>
	<rect x="114.317" y="168.876" fill="#FFFFFF" width="1.44" height="8.1"/>
	<rect x="106.217" y="181.029" fill="#FFFFFF" width="1.44" height="10.123"/>
	<rect x="114.317" y="181.029" fill="#FFFFFF" width="1.44" height="10.123"/>
</g>
<g>
	<g>
		<path fill="none" stroke="#000000" stroke-width="2" d="M86.27,183.256c-39-1-57.449-15.462-59-62"/>
		<path d="M27.321,122.785l-5.292,3.464l-0.128-0.18l3.205-8.924c0.572-3.091,1.145-6.183,1.718-9.274
			c0.777,3.046,1.555,6.093,2.333,9.139l3.792,8.691l-0.086,0.187L27.321,122.785z"/>
	</g>
</g>
<text transform="matrix(1 0 0 1 101.0532 213.2559)" font-family="'Myriad-Roman'" font-size="12">AMI</text>
</svg>
