<?xml version="1.0" encoding="utf-8"?>
<!-- Generator: Adobe Illustrator 12.0.0, SVG Export Plug-In . SVG Version: 6.00 Build 51448)  -->
<!DOCTYPE svg PUBLIC "-//W3C//DTD SVG 1.1//EN" "http://www.w3.org/Graphics/SVG/1.1/DTD/svg11.dtd" [
	<!ENTITY ns_svg "http://www.w3.org/2000/svg">
	<!ENTITY ns_xlink "http://www.w3.org/1999/xlink">
]>
<svg  version="1.1" id="Layer_1" xmlns="&ns_svg;" xmlns:xlink="&ns_xlink;" width="380.439" height="244"
	 viewBox="0 0 380.439 244" overflow="visible" enable-background="new 0 0 380.439 244" xml:space="preserve">
<g>
	<path fill="none" stroke="#D46A27" stroke-width="4" stroke-dasharray="12 12" d="M378.439,219.5c0,12.426-10.072,22.5-22.5,22.5
		h-330c-12.426,0-22.5-10.074-22.5-22.5v-195c0-12.426,10.074-22.5,22.5-22.5h330c12.428,0,22.5,10.074,22.5,22.5V219.5z"/>
	<g>
		<g id="Working">
			<path fill="#F1E917" stroke="#148040" d="M133.428,158.436H82.353c-5.343,0.039-9.707-4.258-9.75-9.6c0-0.026,0-0.05,0-0.076
				V97.685c-0.042-5.344,4.258-9.709,9.599-9.75c0.051,0,0.101,0,0.151,0h51.15c5.343,0.041,9.641,4.407,9.6,9.749v0.001v51.148
				C143.063,154.15,138.743,158.436,133.428,158.436z M82.353,90.935c-3.694-0.033-6.717,2.934-6.75,6.628c0,0.04,0,0.08,0,0.122
				v51.151c0.05,3.683,3.067,6.633,6.75,6.6h51.15c3.684-0.01,6.667-2.993,6.675-6.676V97.685c0.033-3.696-2.934-6.717-6.63-6.75
				c-0.041,0-0.08,0-0.12,0H82.353L82.353,90.935z"/>
		</g>
		<text transform="matrix(1 0 0 1 78.7378 129.7861)" fill="#020202" font-family="'Myriad-Roman'" font-size="22.5">novnc</text>
	</g>
	<g>
		<path fill="#E45925" d="M334.623,197.191h-51.075c-5.345,0.041-9.71-4.256-9.75-9.599c0-0.024,0-0.05,0-0.076V136.44
			c-0.043-5.344,4.254-9.708,9.597-9.749c0.05-0.001,0.101-0.001,0.153,0h51.15c5.345,0.041,9.643,4.408,9.6,9.749l0,0v51.152
			C344.256,192.907,339.938,197.191,334.623,197.191z M283.548,129.693c-3.698-0.035-6.719,2.933-6.75,6.629
			c-0.004,0.039-0.004,0.08,0,0.119v51.151c0.046,3.683,3.064,6.633,6.75,6.599h51.15c3.682-0.007,6.666-2.99,6.674-6.675v-51.075
			c0.033-3.693-2.934-6.716-6.631-6.748c-0.039-0.002-0.08-0.002-0.119,0H283.548z"/>
		<text transform="matrix(1 0 0 1 297.5215 167.6641)" fill="#020202" font-family="'Myriad-Roman'" font-size="19.5">OS</text>
	</g>
	<g>
		<g id="Working_2_">
			<path fill="#F57F2D" stroke="#030303" stroke-linecap="round" d="M277.919,89.327h-51.073c-5.344,0.042-9.709-4.257-9.75-9.6
				c0-0.024,0-0.05,0-0.074V28.577c-0.042-5.344,4.254-9.708,9.598-9.75c0.05,0,0.1,0,0.152,0h51.149
				c5.344,0.041,9.641,4.408,9.601,9.749c0,0.001,0,0.001,0,0.001v51.15C287.556,85.04,283.235,89.327,277.919,89.327z
				 M226.846,21.827c-3.697-0.033-6.718,2.936-6.75,6.63c-0.003,0.041-0.003,0.079,0,0.12v51.15c0.047,3.685,3.064,6.634,6.75,6.6
				h51.149c3.684-0.007,6.665-2.991,6.674-6.674V28.577c0.032-3.694-2.933-6.716-6.63-6.75c-0.04,0-0.079,0-0.12,0H226.846
				L226.846,21.827z"/>
		</g>
		<text transform="matrix(1 0 0 1 235.6514 47.1797)" fill="#030303" font-family="'Myriad-Roman'" font-size="22.5">vnc</text>
		<text transform="matrix(1 0 0 1 223.8506 74.1797)" fill="#030303" font-family="'Myriad-Roman'" font-size="22.5">server</text>
	</g>
	<line fill="none" stroke="#020202" stroke-width="2" x1="65.588" y1="123.635" x2="0" y2="123.635"/>
	<text transform="matrix(1 0 0 1 21.9697 115.0811)" fill="#020202" font-family="'Myriad-Roman'" font-size="13.5">6901</text>
	<line fill="none" stroke="#020202" stroke-width="2" x1="285.645" y1="93.287" x2="309.563" y2="123.055"/>
	<line fill="none" stroke="#020202" stroke-width="2" x1="149.569" y1="120.396" x2="210.696" y2="59.271"/>
	
		<text transform="matrix(0.728 -0.6856 0.6856 0.728 165.5513 94.8521)" fill="#020202" font-family="'Myriad-Roman'" font-size="13.5004">5901</text>
</g>
</svg>
