<?xml version="1.0" encoding="utf-8"?>
<!-- Generator: Adobe Illustrator 12.0.0, SVG Export Plug-In . SVG Version: 6.00 Build 51448)  -->
<!DOCTYPE svg PUBLIC "-//W3C//DTD SVG 1.1//EN" "http://www.w3.org/Graphics/SVG/1.1/DTD/svg11.dtd" [
	<!ENTITY ns_svg "http://www.w3.org/2000/svg">
	<!ENTITY ns_xlink "http://www.w3.org/1999/xlink">
]>
<svg  version="1.1" id="Layer_1" xmlns="&ns_svg;" xmlns:xlink="&ns_xlink;" width="380.441" height="244"
	 viewBox="0 0 380.441 244" overflow="visible" enable-background="new 0 0 380.441 244" xml:space="preserve">
<path fill="none" stroke="#D56928" stroke-width="4" stroke-dasharray="12 12" d="M378.441,219.5c0,12.426-10.073,22.5-22.5,22.5
	h-330c-12.426,0-22.5-10.074-22.5-22.5v-195c0-12.426,10.074-22.5,22.5-22.5h330c12.427,0,22.5,10.074,22.5,22.5V219.5z"/>
<g>
	<g id="Working">
		<path fill="#129447" d="M94.691,161.092H43.616c-5.343,0.041-9.708-4.256-9.75-9.6c0-0.025,0-0.051,0-0.075v-51.075
			c-0.042-5.344,4.256-9.709,9.599-9.75c0.05-0.001,0.101-0.001,0.151,0h51.15c5.343,0.041,9.641,4.406,9.6,9.748
			c0,0.001,0,0.002,0,0.002v51.149C104.325,156.807,100.005,161.092,94.691,161.092z M43.616,93.592
			c-3.694-0.034-6.717,2.934-6.75,6.629c0,0.041,0,0.079,0,0.121v51.15c0.05,3.684,3.067,6.634,6.75,6.6h51.15
			c3.684-0.008,6.667-2.992,6.674-6.675v-51.075c0.034-3.695-2.934-6.717-6.629-6.75c-0.041,0-0.079,0-0.121,0H43.616L43.616,93.592
			z"/>
	</g>
	<text transform="matrix(1 0 0 1 42.4082 132.4443)" fill="#010101" font-family="'Myriad-Roman'" font-size="22.5">proxy</text>
</g>
<g>
	<g id="Working_3_">
		<path fill="#75AADB" d="M339.346,204.854h-51.075c-5.344,0.041-9.709-4.258-9.75-9.6c0-0.025,0-0.051,0-0.076v-51.074
			c-0.043-5.344,4.255-9.709,9.6-9.75c0.05,0,0.101,0,0.15,0h51.149c5.344,0.041,9.642,4.406,9.602,9.748c0,0.002,0,0.002,0,0.002
			v51.149C348.98,200.566,344.66,204.854,339.346,204.854z M288.271,137.354c-3.695-0.033-6.717,2.935-6.75,6.629
			c-0.001,0.041-0.001,0.08,0,0.121v51.149c0.048,3.683,3.065,6.633,6.75,6.601h51.149c3.684-0.008,6.667-2.992,6.675-6.676v-51.074
			c0.034-3.695-2.934-6.718-6.63-6.75c-0.039,0-0.079,0-0.12,0H288.271L288.271,137.354z"/>
	</g>
	<text transform="matrix(1 0 0 1 281.9854 163.626)" fill="#010101" font-family="'Myriad-Roman'" font-size="19.5">RStudio</text>
	<text transform="matrix(1 0 0 1 289.0732 187.0264)" fill="#010101" font-family="'Myriad-Roman'" font-size="19.5">server</text>
</g>
<g>
	<g id="Working_2_">
		<path fill="#010101" d="M341.739,104.37h-51.074c-5.345,0.041-9.708-4.257-9.75-9.601c0-0.024,0-0.05,0-0.076V43.619
			c-0.043-5.343,4.255-9.708,9.599-9.75c0.05,0,0.103,0,0.151,0h51.148c5.344,0.041,9.643,4.406,9.602,9.749
			c0,0.001,0,0.001,0,0.001v51.15C351.375,100.083,347.055,104.37,341.739,104.37z M290.665,36.87
			c-3.695-0.034-6.719,2.935-6.75,6.63c-0.001,0.039-0.001,0.079,0,0.12v51.149c0.049,3.684,3.064,6.634,6.75,6.601h51.148
			c3.685-0.009,6.666-2.992,6.675-6.676V43.62c0.034-3.695-2.934-6.717-6.63-6.75c-0.04,0-0.079,0-0.12,0H290.665z"/>
	</g>
	<text transform="matrix(1 0 0 1 297.9395 75.7227)" fill="#010101" font-family="'Myriad-Roman'" font-size="22.5">app</text>
</g>
<line fill="none" stroke="#010101" stroke-width="2" x1="104.652" y1="110.678" x2="280.459" y2="53.42"/>
<line fill="none" stroke="#010101" stroke-width="2" x1="103.845" y1="125.193" x2="283.151" y2="73.686"/>
<line fill="none" stroke="#010101" stroke-width="2" x1="102.232" y1="142.129" x2="278.845" y2="173.582"/>
<text transform="matrix(0.9272 -0.3745 0.3745 0.9272 164.001 83.5972)" fill="#010101" font-family="'Myriad-Roman'" font-size="17.9995">/ping</text>
<text transform="matrix(0.9526 -0.3043 0.3043 0.9526 117.0381 137.9639)" fill="#010101" font-family="'Myriad-Roman'" font-size="13.5003">/user_id/rstudio/auth-sign-in</text>
<text transform="matrix(0.9781 0.2081 -0.2081 0.9781 124.6294 161.0264)" fill="#010101" font-family="'Myriad-Roman'" font-size="17.9999">/user_id/rstudio</text>
<line fill="none" stroke="#010101" stroke-width="2" x1="33.803" y1="123.635" x2="0" y2="123.635"/>
</svg>
